<svg height="488pt" viewBox="-84 0 488 488" width="488pt" xmlns="http://www.w3.org/2000/svg"><path d="m24 448h272v32h-272zm0 0" fill="#656665"/><path d="m24 448h224v32h-224zm0 0" fill="#999"/><path d="m208 104c0 26.507812-21.492188 48-48 48s-48-21.492188-48-48 21.492188-48 48-48 48 21.492188 48 48zm0 0" fill="#999"/><path d="m176 104c0 8.835938-7.164062 16-16 16s-16-7.164062-16-16 7.164062-16 16-16 16 7.164062 16 16zm0 0" fill="#fff"/><g fill="#5b6673"><path d="m296 488h-272c-4.425781 0-8-3.585938-8-8v-32c0-4.414062 3.574219-8 8-8h272c4.425781 0 8 3.585938 8 8v32c0 4.414062-3.574219 8-8 8zm-264-16h256v-16h-256zm0 0"/><path d="m176.273438 146.035156 15.464843-4.070312 80.003907 304.011718-15.46875 4.070313zm0 0"/><path d="m48.273438 445.972656 80.003906-304.007812 15.464844 4.070312-80.003907 304.007813zm0 0"/><path d="m160 128c-13.230469 0-24-10.769531-24-24s10.769531-24 24-24 24 10.769531 24 24-10.769531 24-24 24zm0-32c-4.414062 0-8 3.59375-8 8s3.585938 8 8 8 8-3.59375 8-8-3.585938-8-8-8zm0 0"/><path d="m160 160c-30.871094 0-56-25.121094-56-56s25.128906-56 56-56 56 25.121094 56 56-25.128906 56-56 56zm0-96c-22.054688 0-40 17.945312-40 40s17.945312 40 40 40 40-17.945312 40-40-17.945312-40-40-40zm0 0"/><path d="m256 88h-16c0-4.40625-3.585938-8-8-8v-16c13.230469 0 24 10.769531 24 24zm0 0"/><path d="m288 88h-16c0-22.054688-17.945312-40-40-40v-16c30.871094 0 56 25.121094 56 56zm0 0"/><path d="m320 88h-16c0-39.695312-32.296875-72-72-72v-16c48.519531 0 88 39.480469 88 88zm0 0"/><path d="m80 88h-16c0-13.230469 10.769531-24 24-24v16c-4.414062 0-8 3.59375-8 8zm0 0"/><path d="m48 88h-16c0-30.878906 25.128906-56 56-56v16c-22.054688 0-40 17.945312-40 40zm0 0"/><path d="m16 88h-16c0-48.519531 39.480469-88 88-88v16c-39.703125 0-72 32.304688-72 72zm0 0"/><path d="m115.199219 198.398438 9.597656-12.792969 96 72-9.597656 12.792969zm0 0"/><path d="m99.179688 257.59375 96.011718-71.976562 9.59375 12.796874-96.011718 71.976563zm0 0"/><path d="m91.734375 294.761719 8.546875-13.53125 152 96-8.546875 13.535156zm0 0"/><path d="m67.726562 377.253906 152-96 8.546876 13.535156-152 96zm0 0"/></g></svg>