<svg height="511pt" viewBox="-39 0 511 511.9996" width="511pt" xmlns="http://www.w3.org/2000/svg" xmlns:xlink="http://www.w3.org/1999/xlink"><linearGradient id="a" gradientUnits="userSpaceOnUse" x1=".500390494" x2="432.799767457" y1="255.999964976" y2="255.999964976"><stop offset="0" stop-color="#80d8ff"/><stop offset="1" stop-color="#ea80fc"/></linearGradient><path d="m53.21875 260.414062c-33.996094-34-52.71875-79.199218-52.71875-127.277343 0-48.082031 18.722656-93.28125 52.71875-127.277344 7.8125-7.8125 20.472656-7.8125 28.285156 0 7.8125 7.808594 7.8125 20.472656 0 28.285156-26.441406 26.441407-41.003906 61.597657-41.003906 98.992188s14.5625 72.550781 41.003906 98.992187c7.8125 7.8125 7.8125 20.476563 0 28.285156-7.808594 7.808594-20.472656 7.808594-28.285156 0zm339.582031-127.277343c0 37.394531-14.5625 72.550781-41.003906 98.992187-7.8125 7.8125-7.8125 20.476563 0 28.285156 7.808594 7.808594 20.472656 7.808594 28.28125 0 34-34 52.722656-79.199218 52.722656-127.277343 0-48.082031-18.722656-93.28125-52.71875-127.277344-7.8125-7.8125-20.476562-7.8125-28.285156 0-7.8125 7.808594-7.8125 20.472656 0 28.285156 26.441406 26.441407 41.003906 61.597657 41.003906 98.992188zm-280.292969 84.851562c7.8125 7.8125 20.472657 7.8125 28.285157 0 7.808593-7.808593 7.808593-20.472656 0-28.28125-15.109375-15.113281-23.429688-35.203125-23.429688-56.570312 0-21.367188 8.320313-41.457031 23.429688-56.566407 7.808593-7.8125 7.808593-20.472656 0-28.285156-7.8125-7.808594-20.472657-7.808594-28.285157 0-22.664062 22.664063-35.144531 52.800782-35.144531 84.851563 0 32.054687 12.480469 62.1875 35.144531 84.851562zm180 0c7.808594 7.8125 20.472657 7.8125 28.28125 0 22.667969-22.664062 35.148438-52.800781 35.148438-84.851562 0-32.054688-12.480469-62.1875-35.144531-84.851563-7.8125-7.8125-20.476563-7.808594-28.285157 0-7.808593 7.8125-7.8125 20.472656 0 28.285156 15.109376 15.109376 23.429688 35.199219 23.429688 56.566407 0 21.367187-8.320312 41.457031-23.429688 56.566406-7.8125 7.8125-7.8125 20.476563 0 28.285156zm102.019532 265.042969c4.949218 9.871094.960937 21.890625-8.914063 26.84375-9.828125 4.929688-21.867187 1.007812-26.84375-8.910156l-32.582031-64.96875h-219.074219l-32.585937 64.964844c-4.949219 9.875-16.96875 13.863281-26.84375 8.910156-9.871094-4.949219-13.859375-16.96875-8.910156-26.84375l149.097656-297.261719c-18.589844-10.207031-31.21875-29.96875-31.21875-52.628906 0-33.085938 26.914062-60 60-60 33.082031 0 59.996094 26.914062 59.996094 60 0 22.660156-12.628907 42.421875-31.21875 52.628906zm-197.878906-349.894531c0 10.519531 8.167968 19.144531 18.492187 19.921875.5-.039063 1.003906-.058594 1.507813-.058594.507812 0 1.011718.019531 1.511718.058594 10.324219-.777344 18.488282-9.40625 18.488282-19.921875 0-11.027344-8.972657-20-20-20-11.027344 0-20 8.972656-20 20zm20 84.472656-37.402344 74.570313h74.808594zm89.476562 178.386719-32.007812-63.816406h-114.933594l-32.007813 63.816406zm0 0" fill="url(#a)"/></svg>