<svg height="496pt" viewBox="-88 0 496 496" width="496pt" xmlns="http://www.w3.org/2000/svg"><path d="m296 448h-25.832031l-76.648438-291.246094c13.617188-10.226562 22.480469-26.457031 22.480469-44.753906 0-30.878906-25.128906-56-56-56s-56 25.121094-56 56c0 18.296875 8.863281 34.527344 22.480469 44.753906l-76.648438 291.246094h-25.832031c-4.425781 0-8 3.585938-8 8v32c0 4.414062 3.574219 8 8 8h272c4.425781 0 8-3.585938 8-8v-32c0-4.414062-3.574219-8-8-8zm-188.96875-154.496094 4.519531-17.167968 48.449219-36.335938 48.449219 36.335938 4.519531 17.167968-52.96875 33.457032zm37.984375 42.921875-59.09375 37.328125 16.847656-64.011718zm-26.910156-85 9.414062-35.785156 19.152344 14.359375zm55.222656-21.425781 19.152344-14.359375 9.414062 35.785156zm43.910156 79.734375 16.851563 64.007813-59.097656-37.328126zm-97.238281-197.734375c0-22.054688 17.945312-40 40-40s40 17.945312 40 40-17.945312 40-40 40-40-17.945312-40-40zm40 56c6.695312 0 13.089844-1.238281 19.046875-3.40625l9.042969 34.34375-28.089844 21.0625-28.078125-21.0625 9.039063-34.34375c5.949218 2.167969 12.34375 3.40625 19.039062 3.40625zm-80.054688 228.449219 80.054688-50.5625 80.054688 50.5625 13.570312 51.550781h-187.25zm208.054688 83.550781h-256v-16h256zm0 0"/><path d="m160 136c13.230469 0 24-10.769531 24-24s-10.769531-24-24-24-24 10.769531-24 24 10.769531 24 24 24zm0-32c4.414062 0 8 3.59375 8 8s-3.585938 8-8 8-8-3.59375-8-8 3.585938-8 8-8zm0 0"/><path d="m240 88h16c0-13.230469-10.769531-24-24-24v16c4.414062 0 8 3.59375 8 8zm0 0"/><path d="m272 88h16c0-30.878906-25.128906-56-56-56v16c22.054688 0 40 17.945312 40 40zm0 0"/><path d="m232 0v16c39.703125 0 72 32.304688 72 72h16c0-48.519531-39.480469-88-88-88zm0 0"/><path d="m80 88c0-4.40625 3.585938-8 8-8v-16c-13.230469 0-24 10.769531-24 24zm0 0"/><path d="m88 32c-30.871094 0-56 25.121094-56 56h16c0-22.054688 17.945312-40 40-40zm0 0"/><path d="m88 16v-16c-48.519531 0-88 39.480469-88 88h16c0-39.695312 32.296875-72 72-72zm0 0"/></svg>