<svg height="512pt" viewBox="-31 0 511 512" width="512pt" xmlns="http://www.w3.org/2000/svg"><path d="m420.410156 482h-34.636718l-129.671876-344.273438c8.753907-8.214843 14.308594-19.800781 14.308594-32.726562 0-19.53125-12.578125-36.023438-30-42.238281v-62.761719h-30v62.761719c-17.425781 6.214843-30 22.707031-30 42.238281 0 12.925781 5.550782 24.511719 14.304688 32.726562l-129.671875 344.273438h-34.632813v30h390zm-82.574218-41.8125-90.199219-86.496094 42.203125-40.191406zm-111.878907-107.285156-32.226562-30.902344h64.675781zm-3.675781-183.21875c1.054688.074218 2.054688.316406 3.128906.316406 1.070313 0 2.074219-.242188 3.125-.316406l45.582032 122.316406h-97.417969zm-60.933594 162.832031 42.859375 41.101563-91.414062 87.058593zm-48.433594 169.484375 112.972657-107.59375 112.203125 107.59375zm0 0"/><path d="m38.128906 209.910156 23.144532-19.101562c-41.046876-49.714844-41.046876-121.902344 0-171.621094l-23.144532-19.0976562c-50.171875 60.7890622-50.171875 149.0312502 0 209.8203122zm0 0"/><path d="m412.6875.0898438-23.144531 19.1015622c41.046875 49.714844 41.046875 121.902344 0 171.621094l23.144531 19.101562c50.171875-60.792968 50.171875-149.035156 0-209.8242182zm0 0"/><path d="m130.691406 76.449219c-16.847656 20.375-9.582031 43.285156-2.621094 53.613281l24.929688-16.683594c-1.433594-2.214844-5.59375-10.078125.808594-17.828125zm0 0"/><path d="m84.429688 38.230469c-39.445313 47.753906-22.367188 101.324219-6.046876 125.464843l24.84375-16.816406c-1.273437-1.890625-30.9375-46.84375 4.320313-89.542968zm0 0"/><path d="m320.109375 133.5625c11.734375-14.191406 15.5-38.378906 0-57.128906l-23.113281 19.101562c5.726562 6.945313 3.132812 15.117188 0 18.929688zm0 0"/><path d="m366.398438 171.769531c31.933593-38.6875 31.933593-94.851562 0-133.535156l-23.144532 19.101563c22.808594 27.625 22.808594 67.71875 0 95.332031zm0 0"/></svg>