<svg height="430pt" viewBox="-96 0 430 430.128" width="430pt" xmlns="http://www.w3.org/2000/svg"><path d="m191.691406 158.40625 11.335938 11.296875c46.855468-46.859375 46.855468-122.832031 0-169.6953125l-11.335938 11.3046875c40.625 40.617188 40.625 106.480469 0 147.09375zm0 0"/><path d="m27.554688 430.128906 81.472656-105.914062-35.28125-45.863282zm0 0"/><path d="m87.355469 269.816406 31.757812 41.28125 31.753907-41.28125zm0 0"/><path d="m119.113281 129.296875-37.894531 124.519531h75.792969zm0 0"/><path d="m164.480469 278.351562-35.277344 45.863282 81.472656 105.914062zm0 0"/><path d="m135.113281 85.816406c0 8.835938-7.164062 16-16 16-8.835937 0-16-7.164062-16-16 0-8.835937 7.164063-16 16-16 8.835938 0 16 7.164063 16 16zm0 0"/><path d="m157.707031 124.457031c10.527344-10.488281 16.445313-24.738281 16.445313-39.601562 0-14.859375-5.917969-29.109375-16.445313-39.597657l-11.265625 11.359376c7.5 7.484374 11.710938 17.644531 11.710938 28.238281s-4.210938 20.753906-11.710938 28.242187zm0 0"/><path d="m169.058594 135.761719 11.320312 11.308593c34.351563-34.363281 34.351563-90.066406 0-124.429687l-11.320312 11.3125c28.105468 28.113281 28.105468 73.691406 0 101.808594zm0 0"/><path d="m46.539062 158.40625c-40.632812-40.617188-40.632812-106.484375 0-147.101562l-11.328124-11.304688c-46.863282 46.863281-46.863282 122.839844 0 169.703125zm0 0"/><path d="m80.523438 124.457031 11.261718-11.359375c-7.496094-7.488281-11.710937-17.648437-11.710937-28.242187s4.214843-20.753907 11.710937-28.238281l-11.261718-11.359376c-10.53125 10.488282-16.449219 24.738282-16.449219 39.597657 0 14.863281 5.917969 29.113281 16.449219 39.601562zm0 0"/><path d="m57.859375 147.070312 11.3125-11.308593c-28.109375-28.117188-28.109375-73.695313 0-101.808594l-11.320313-11.335937c-34.355468 34.363281-34.355468 90.066406 0 124.429687zm0 0"/></svg>