<?xml version="1.0" encoding="iso-8859-1"?>
<!-- Generator: Adobe Illustrator 19.0.0, SVG Export Plug-In . SVG Version: 6.00 Build 0)  -->
<svg version="1.1" id="Capa_1" xmlns="http://www.w3.org/2000/svg" xmlns:xlink="http://www.w3.org/1999/xlink" x="0px" y="0px"
	 viewBox="0 0 512.001 512.001" style="enable-background:new 0 0 512.001 512.001;" xml:space="preserve">
<g>
	<path style="fill:#385F82;" d="M297.268,347.673l-16.698,13.321c-3.278,2.615-3.815,7.392-1.201,10.669
		c1.5,1.879,3.709,2.858,5.94,2.858c1.66,0,3.331-0.542,4.729-1.657l16.698-13.321c3.278-2.615,3.815-7.392,1.201-10.669
		C305.321,345.597,300.543,345.06,297.268,347.673z"/>
	<path style="fill:#385F82;" d="M346.752,411.066c4.193,0,7.591-3.398,7.591-7.591s-3.398-7.591-7.591-7.591h-11.634v-34.236
		c0-4.193-3.398-7.591-7.591-7.591s-7.591,3.398-7.591,7.591v41.096l-25.175-20.084c-3.278-2.613-8.054-2.076-10.669,1.2
		c-2.615,3.278-2.077,8.054,1.2,10.67l30.733,24.518l-41.937,33.457l-8.412-6.711c-3.279-2.613-8.055-2.076-10.669,1.2
		c-2.615,3.278-2.077,8.054,1.2,10.67l5.707,4.553l-36.121,28.817v-25.256c0-4.193-3.398-7.591-7.591-7.591
		c-4.193,0-7.591,3.398-7.591,7.591v38.632c0,4.193,3.398,7.591,7.591,7.591c0.521,0,1.03-0.053,1.521-0.153
		c0.488,0.096,0.984,0.153,1.482,0.153c1.66,0,3.331-0.542,4.73-1.657l48.154-38.416l48.153,38.416
		c1.399,1.115,3.07,1.657,4.73,1.657c0.089,0,0.178-0.012,0.267-0.015c0.097,0.004,0.193,0.015,0.29,0.015
		c4.193,0,7.591-3.398,7.591-7.591v-53.455h11.634c4.193,0,7.591-3.398,7.591-7.591s-3.398-7.591-7.591-7.591H335.12v-24.705h11.632
		V411.066z M319.935,435.35v53.731l-33.676-26.866L319.935,435.35z"/>
	<path style="fill:#385F82;" d="M210.608,320.527c0,4.193,3.398,7.591,7.591,7.591c4.193,0,7.591-3.398,7.591-7.591v-59.803
		l36.122,28.817l-39.281,32.663c-3.278,2.615-3.815,7.392-1.201,10.669c1.499,1.88,3.709,2.858,5.94,2.858
		c1.66,0,3.331-0.542,4.729-1.657l41.987-34.821l20.874,16.319c1.398,1.115,3.069,1.657,4.729,1.657c2.23,0,4.44-0.979,5.94-2.858
		c2.615-3.277,2.077-8.054-1.201-10.669l-18.168-14.16l33.676-26.866v26.854c0,4.193,3.398,7.591,7.591,7.591
		s7.591-3.398,7.591-7.591v-90.632c0-4.193-3.398-7.591-7.591-7.591s-7.591,3.398-7.591,7.591v31.173l-18.579-14.822
		c-3.276-2.614-8.053-2.077-10.669,1.201c-2.615,3.277-2.077,8.053,1.201,10.669l24.136,19.254l-41.938,33.457l-41.939-33.457
		l21.034-16.78c3.278-2.615,3.815-7.392,1.201-10.669c-2.615-3.279-7.393-3.815-10.669-1.201l-17.923,14.298v-57.634l29.635,23.642
		c1.398,1.115,3.069,1.657,4.729,1.657c2.23,0,4.44-0.979,5.94-2.858c2.615-3.277,2.077-8.053-1.201-10.669l-24.454-19.508h59.752
		c4.193,0,7.591-3.398,7.591-7.591c0-4.193-3.398-7.591-7.591-7.591h-74.401v-28.065c0-4.193-3.398-7.591-7.591-7.591
		c-4.193,0-7.591,3.398-7.591,7.591v35.656v38.313h-11.635c-4.193,0-7.591,3.398-7.591,7.591c0,4.193,3.398,7.591,7.591,7.591
		h11.635v24.705h-11.635c-4.193,0-7.591,3.398-7.591,7.591c0,4.193,3.398,7.591,7.591,7.591h11.635v68.085H210.608z"/>
</g>
<circle style="fill:#F4E6D3;" cx="217.721" cy="393.3" r="77.23"/>
<path style="fill:#EAD2B1;" d="M217.727,422.906c-16.327,0-29.611-13.283-29.611-29.611s13.283-29.611,29.611-29.611
	s29.611,13.283,29.611,29.611S234.054,422.906,217.727,422.906z"/>
<circle style="fill:#FFB229;" cx="217.721" cy="393.3" r="17.464"/>
<path style="fill:#385F82;" d="M297.993,174.42l-15.972,12.741c-3.278,2.614-3.815,7.392-1.201,10.669
	c1.5,1.88,3.709,2.858,5.94,2.858c1.66,0,3.331-0.542,4.729-1.657l15.972-12.741c3.278-2.615,3.815-7.392,1.201-10.669
	C306.046,172.341,301.269,171.805,297.993,174.42z"/>
<circle style="fill:#00D8E0;" cx="326.971" cy="321.58" r="42.34"/>
<path style="fill:#00BDC6;" d="M326.974,347.436c-14.255,0-25.851-11.597-25.851-25.852s11.597-25.851,25.851-25.851
	c14.255,0,25.851,11.597,25.851,25.851S341.229,347.436,326.974,347.436z"/>
<circle style="fill:#4E7693;" cx="326.971" cy="321.58" r="13.705"/>
<path style="fill:#FFB229;" d="M171.54,283.082L171.54,283.082c14.033,0,25.408-11.376,25.408-25.408v-66.641
	c0-14.033-11.376-25.408-25.408-25.408l0,0c-6.651,0-12.043,5.392-12.043,12.043v93.372
	C159.497,277.69,164.889,283.082,171.54,283.082z"/>
<path style="fill:#FF8B00;" d="M196.95,191.038v66.632c0,14.039-11.377,25.416-25.406,25.416c-1.913,0-3.725-0.445-5.324-1.235
	c10.203-3.3,17.571-12.875,17.571-24.181v-66.632c0-11.306-7.369-20.881-17.571-24.181c1.599-0.79,3.411-1.235,5.324-1.235
	C185.573,165.622,196.95,176.999,196.95,191.038z"/>
<path style="fill:#E3E3E3;" d="M374.185,481.593L374.185,481.593c-14.033,0-25.408-11.376-25.408-25.408v-66.641
	c0-14.033,11.376-25.408,25.408-25.408l0,0c6.651,0,12.043,5.392,12.043,12.043v93.372
	C386.228,476.202,380.836,481.593,374.185,481.593z"/>
<path style="fill:#C8C8C8;" d="M379.772,480.22c-1.67,0.881-3.573,1.377-5.587,1.377c-14.029,0-25.406-11.377-25.406-25.416v-66.632
	c0-14.039,11.377-25.416,25.406-25.416c2.014,0,3.917,0.496,5.587,1.377c-9.98,3.421-17.146,12.895-17.146,24.04v66.632
	C362.625,467.325,369.791,476.799,379.772,480.22z"/>
<path style="fill:#385F82;" d="M199.479,55.548h11.129V84.94c0,4.193,3.398,7.591,7.591,7.591c4.193,0,7.591-3.398,7.591-7.591
	V7.591c0-4.193-3.398-7.591-7.591-7.591c-4.193,0-7.591,3.398-7.591,7.591v32.774h-11.129c-4.193,0-7.591,3.398-7.591,7.591
	S195.285,55.548,199.479,55.548z"/>
<path style="fill:#FC4747;" d="M184.296,74.15L184.296,74.15c7.267,0,13.158-5.891,13.158-13.158V34.921
	c0-7.267-5.891-13.158-13.158-13.158l0,0c-7.267,0-13.158,5.891-13.158,13.158v26.071C171.137,68.259,177.029,74.15,184.296,74.15z"
	/>
<path style="fill:#FFB229;" d="M326.508,196.873L326.508,196.873c-13.416,0-24.293-10.876-24.293-24.293v-41.162
	c0-13.416,10.876-24.293,24.293-24.293l0,0c13.416,0,24.293,10.876,24.293,24.293v41.162
	C350.801,185.997,339.925,196.873,326.508,196.873z"/>
<circle style="fill:#00D8E0;" cx="272.191" cy="214.23" r="28.93"/>
<path style="fill:#4E7693;" d="M272.193,221.823c-4.193,0-7.638-3.398-7.638-7.591s3.351-7.591,7.544-7.591h0.094
	c4.193,0,7.591,3.398,7.591,7.591S276.386,221.823,272.193,221.823z"/>
<circle style="fill:#E3E3E3;" cx="221.401" cy="104.04" r="25.572"/>
<g>
	<path style="fill:#FF8B00;" d="M350.803,158.03v14.545c0,0.213,0,0.425-0.02,0.638h-48.545c-0.02-0.213-0.02-0.425-0.02-0.638
		V158.03H350.803z"/>
	<rect x="302.221" y="133.18" style="fill:#FF8B00;" width="48.585" height="15.183"/>
</g>
<g>
	<path style="fill:#385F82;" d="M435.848,415.289l-9.604-0.029c-0.008,0-0.015,0-0.023,0c-4.182,0-7.579,3.385-7.591,7.569
		c-0.013,4.193,3.377,7.601,7.569,7.614l9.604,0.029c0.008,0,0.015,0,0.023,0c4.182,0,7.579-3.384,7.591-7.569
		C443.429,418.711,440.04,415.302,435.848,415.289z"/>
	<path style="fill:#385F82;" d="M426.683,388.502l-8.332,4.778c-3.637,2.086-4.894,6.725-2.808,10.362
		c1.403,2.446,3.961,3.815,6.592,3.815c1.281,0,2.579-0.324,3.77-1.007l8.332-4.778c3.637-2.086,4.894-6.725,2.808-10.362
		C434.961,387.673,430.322,386.416,426.683,388.502z"/>
	<path style="fill:#385F82;" d="M434.114,444.078l-8.303-4.827c-3.625-2.106-8.271-0.877-10.379,2.748
		c-2.106,3.625-0.877,8.271,2.748,10.379l8.303,4.827c1.201,0.698,2.513,1.029,3.809,1.029c2.615,0,5.161-1.353,6.57-3.777
		C438.968,450.833,437.738,446.186,434.114,444.078z"/>
	<path style="fill:#385F82;" d="M111.253,231.96c0.007,0,0.015,0,0.022,0l9.604-0.028c4.193-0.012,7.582-3.421,7.57-7.613
		c-0.012-4.185-3.408-7.57-7.591-7.57c-0.007,0-0.015,0-0.022,0l-9.604,0.028c-4.193,0.012-7.582,3.421-7.57,7.613
		C103.673,228.576,107.07,231.96,111.253,231.96z"/>
	<path style="fill:#385F82;" d="M112.841,203.163l8.332,4.776c1.19,0.683,2.488,1.007,3.769,1.007c2.631,0,5.189-1.37,6.593-3.816
		c2.085-3.637,0.827-8.276-2.81-10.362l-8.332-4.777c-3.635-2.083-8.275-0.827-10.361,2.81
		C107.946,196.437,109.204,201.077,112.841,203.163z"/>
	<path style="fill:#385F82;" d="M121.268,240.74l-8.304,4.827c-3.625,2.107-4.855,6.753-2.749,10.378
		c1.41,2.425,3.955,3.778,6.57,3.778c1.295,0,2.608-0.331,3.808-1.029l8.304-4.827c3.625-2.107,4.855-6.753,2.749-10.378
		C129.539,239.863,124.891,238.632,121.268,240.74z"/>
</g>
<g>
	<path style="fill:#00D8E0;" d="M425.003,355.193c8.978-8.977,13.922-20.913,13.922-33.608c0-12.696-4.943-24.632-13.921-33.609
		c-2.965-2.963-7.771-2.963-10.737,0c-2.964,2.965-2.964,7.771,0,10.737c6.11,6.109,9.474,14.232,9.474,22.872
		s-3.365,16.762-9.473,22.871c-2.965,2.964-2.965,7.771-0.001,10.736c1.483,1.483,3.425,2.224,5.368,2.224
		C421.578,357.416,423.521,356.674,425.003,355.193z"/>
	<path style="fill:#00D8E0;" d="M450.697,279.156c-2.965-2.963-7.771-2.963-10.737,0c-2.964,2.965-2.964,7.771,0,10.737
		c8.466,8.465,13.128,19.72,13.128,31.692c0,11.971-4.662,23.227-13.127,31.691c-2.965,2.964-2.965,7.771-0.001,10.736
		c1.483,1.483,3.425,2.224,5.368,2.224c1.942,0,3.886-0.741,5.367-2.223c11.334-11.333,17.575-26.401,17.575-42.428
		C468.271,305.558,462.03,290.49,450.697,279.156z"/>
	<path style="fill:#00D8E0;" d="M388.643,296.728c-2.964,2.965-2.964,7.771,0,10.737c7.786,7.786,7.786,20.454,0,28.241
		c-2.964,2.965-2.964,7.771,0,10.737c1.483,1.482,3.426,2.223,5.368,2.223c1.942,0,3.886-0.741,5.368-2.223
		c13.705-13.706,13.705-36.008,0-49.714C396.415,293.764,391.609,293.764,388.643,296.728z"/>
</g>
<g>
	<path style="fill:#FFB229;" d="M88.26,393.295c0-8.64,3.365-16.762,9.473-22.871c2.965-2.964,2.965-7.771,0.001-10.736
		c-2.964-2.964-7.771-2.965-10.736-0.001c-8.978,8.977-13.922,20.913-13.922,33.608c0,12.696,4.943,24.632,13.921,33.609
		c1.483,1.482,3.426,2.223,5.368,2.223s3.886-0.741,5.368-2.223c2.964-2.965,2.964-7.771,0-10.737
		C91.625,410.058,88.26,401.935,88.26,393.295z"/>
	<path style="fill:#FFB229;" d="M58.914,393.295c0-11.971,4.662-23.227,13.127-31.691c2.965-2.964,2.965-7.771,0.001-10.736
		s-7.771-2.964-10.736-0.001c-11.334,11.333-17.575,26.401-17.575,42.428s6.241,31.095,17.574,42.429
		c1.483,1.482,3.426,2.223,5.368,2.223s3.886-0.741,5.368-2.223c2.964-2.965,2.964-7.771,0-10.737
		C63.575,416.522,58.914,405.267,58.914,393.295z"/>
	<path style="fill:#FFB229;" d="M123.359,368.438c-2.965-2.963-7.771-2.963-10.737,0c-6.64,6.64-10.296,15.468-10.296,24.857
		c0,9.39,3.657,18.217,10.297,24.857c1.482,1.482,3.425,2.223,5.367,2.223s3.886-0.741,5.368-2.224
		c2.964-2.964,2.964-7.771-0.001-10.736c-3.771-3.771-5.849-8.785-5.849-14.12c0-5.334,2.078-10.349,5.85-14.12
		C126.323,376.209,126.323,371.403,123.359,368.438z"/>
</g>
<g>
</g>
<g>
</g>
<g>
</g>
<g>
</g>
<g>
</g>
<g>
</g>
<g>
</g>
<g>
</g>
<g>
</g>
<g>
</g>
<g>
</g>
<g>
</g>
<g>
</g>
<g>
</g>
<g>
</g>
</svg>
