<?xml version="1.0" encoding="iso-8859-1"?>
<!-- Generator: Adobe Illustrator 19.0.0, SVG Export Plug-In . SVG Version: 6.00 Build 0)  -->
<svg version="1.1" id="Capa_1" xmlns="http://www.w3.org/2000/svg" xmlns:xlink="http://www.w3.org/1999/xlink" x="0px" y="0px"
	 viewBox="0 0 512 512" style="enable-background:new 0 0 512 512;" xml:space="preserve">
<g>
	<g>
		<path d="M220.063,216.684c-18.073,0-32.777,14.708-32.777,32.787c0,18.073,14.704,32.777,32.777,32.777
			c18.079,0,32.787-14.704,32.787-32.777C252.85,231.391,238.142,216.684,220.063,216.684z M220.063,262.12
			c-6.975,0-12.65-5.675-12.65-12.65c0-6.981,5.675-12.66,12.65-12.66c6.981,0,12.66,5.68,12.66,12.66
			C232.723,256.445,227.043,262.12,220.063,262.12z"/>
	</g>
</g>
<g>
	<g>
		<path d="M392.735,124.133c-5.188-5.205-12.097-8.072-19.456-8.072c-15.171,0-27.514,12.343-27.514,27.514v15.427h-16.847v-58.687
			v-62.58c0-5.558-4.506-10.063-10.063-10.063c-5.557,0-10.063,4.505-10.063,10.063v52.517h-88.723
			c-0.114,0-0.223,0.013-0.336,0.017c-0.193,0.006-0.386,0.012-0.58,0.029c-0.155,0.014-0.306,0.037-0.459,0.058
			c-0.172,0.023-0.344,0.046-0.514,0.078c-0.161,0.03-0.318,0.069-0.475,0.108c-0.161,0.038-0.321,0.076-0.481,0.124
			c-0.156,0.046-0.309,0.1-0.462,0.153c-0.157,0.054-0.314,0.109-0.469,0.172c-0.147,0.059-0.289,0.126-0.433,0.192
			c-0.155,0.071-0.31,0.143-0.463,0.222c-0.138,0.072-0.272,0.152-0.407,0.231c-0.148,0.087-0.296,0.173-0.441,0.268
			c-0.137,0.091-0.268,0.188-0.401,0.285c-0.132,0.097-0.265,0.19-0.393,0.294c-0.143,0.115-0.278,0.239-0.414,0.361
			c-0.09,0.081-0.184,0.153-0.272,0.238c-0.021,0.02-0.037,0.042-0.058,0.062c-0.135,0.132-0.259,0.274-0.386,0.414
			c-0.099,0.109-0.202,0.213-0.295,0.325c-0.104,0.125-0.196,0.258-0.294,0.386c-0.102,0.135-0.209,0.268-0.304,0.407
			c-0.069,0.103-0.13,0.213-0.195,0.319c-0.107,0.171-0.218,0.341-0.314,0.517c-0.057,0.107-0.105,0.218-0.159,0.327
			c-0.091,0.182-0.185,0.362-0.264,0.547c-0.076,0.179-0.137,0.366-0.203,0.551c-0.043,0.121-0.094,0.239-0.132,0.36
			c-0.057,0.184-0.1,0.374-0.147,0.562c-0.032,0.129-0.073,0.257-0.1,0.387c-0.033,0.157-0.051,0.318-0.077,0.477
			c-0.027,0.168-0.058,0.336-0.078,0.505c-0.015,0.137-0.018,0.278-0.027,0.417c-0.013,0.195-0.028,0.39-0.029,0.587
			c0,0.027-0.004,0.054-0.004,0.082v40.767h0.001c-55.32,5.094-98.788,51.755-98.788,108.388c0,32.823,14.604,62.3,37.656,82.274
			c16.716,14.485,37.878,23.964,61.133,26.107v72.36h-16.669v-15.427c0-15.171-12.338-27.514-27.503-27.514
			s-27.503,12.343-27.503,27.514v50.982c0,7.365,2.867,14.278,8.048,19.442c5.188,5.205,12.097,8.072,19.456,8.072
			c15.166,0,27.503-12.343,27.503-27.513v-15.427h16.669v51.599c0,0.027,0.004,0.054,0.004,0.081
			c0.001,0.196,0.016,0.391,0.029,0.587c0.009,0.139,0.012,0.28,0.027,0.417c0.018,0.169,0.05,0.337,0.078,0.505
			c0.025,0.159,0.044,0.32,0.077,0.477c0.027,0.13,0.067,0.258,0.1,0.387c0.047,0.188,0.09,0.378,0.147,0.562
			c0.038,0.122,0.09,0.241,0.132,0.36c0.065,0.185,0.127,0.372,0.203,0.551c0.078,0.186,0.173,0.366,0.264,0.547
			c0.054,0.109,0.101,0.221,0.159,0.327c0.096,0.176,0.207,0.346,0.314,0.517c0.066,0.106,0.126,0.216,0.195,0.319
			c0.095,0.139,0.202,0.271,0.304,0.407c0.098,0.129,0.19,0.262,0.294,0.386c0.093,0.112,0.197,0.216,0.295,0.325
			c0.127,0.14,0.252,0.281,0.386,0.414c0.02,0.02,0.037,0.042,0.058,0.062c0.092,0.089,0.19,0.164,0.284,0.249
			c0.13,0.117,0.258,0.234,0.393,0.344c0.13,0.105,0.264,0.199,0.396,0.297c0.129,0.095,0.256,0.19,0.389,0.278
			c0.145,0.096,0.294,0.181,0.443,0.269c0.131,0.078,0.26,0.156,0.394,0.227c0.153,0.081,0.31,0.152,0.466,0.224
			c0.139,0.064,0.276,0.131,0.418,0.189c0.157,0.064,0.316,0.118,0.475,0.174c0.148,0.052,0.294,0.107,0.445,0.152
			c0.163,0.049,0.329,0.087,0.494,0.127c0.15,0.037,0.298,0.077,0.451,0.108c0.189,0.037,0.379,0.06,0.571,0.088
			c0.132,0.018,0.261,0.042,0.395,0.055c0.327,0.032,0.655,0.049,0.984,0.049h98.787c0.328,0,0.656-0.018,0.983-0.049
			c0.135-0.013,0.265-0.038,0.398-0.056c0.189-0.026,0.378-0.049,0.567-0.087c0.154-0.03,0.303-0.071,0.455-0.109
			c0.164-0.04,0.328-0.077,0.491-0.126c0.151-0.045,0.298-0.101,0.447-0.153c0.159-0.055,0.318-0.11,0.474-0.173
			c0.141-0.058,0.278-0.124,0.416-0.188c0.157-0.072,0.315-0.144,0.469-0.225c0.133-0.07,0.261-0.148,0.389-0.224
			c0.15-0.089,0.301-0.175,0.448-0.272c0.131-0.087,0.256-0.181,0.382-0.273c0.136-0.099,0.272-0.195,0.404-0.302
			c0.134-0.109,0.261-0.225,0.389-0.341c0.095-0.085,0.194-0.162,0.286-0.251c0.021-0.02,0.038-0.042,0.058-0.062
			c0.135-0.132,0.26-0.274,0.386-0.414c0.099-0.109,0.202-0.213,0.295-0.325c0.104-0.125,0.196-0.258,0.294-0.386
			c0.102-0.135,0.209-0.268,0.304-0.407c0.069-0.103,0.13-0.213,0.195-0.319c0.107-0.171,0.218-0.341,0.314-0.517
			c0.057-0.107,0.105-0.218,0.158-0.327c0.091-0.182,0.185-0.362,0.264-0.547c0.076-0.179,0.137-0.366,0.203-0.552
			c0.043-0.121,0.094-0.238,0.132-0.36c0.057-0.184,0.1-0.374,0.147-0.562c0.032-0.129,0.072-0.257,0.1-0.387
			c0.033-0.157,0.051-0.318,0.078-0.477c0.027-0.168,0.058-0.336,0.076-0.505c0.015-0.137,0.018-0.278,0.027-0.417
			c0.013-0.195,0.028-0.391,0.03-0.587c0-0.027,0.004-0.054,0.004-0.081V463.39c28.127-4.752,49.625-29.271,49.625-58.728
			c0-29.454-21.497-53.967-49.625-58.718V249.55c0-0.026,0.001-0.051,0.001-0.078s-0.001-0.051-0.001-0.077v-70.266h16.847v15.427
			c0,15.171,12.343,27.513,27.513,27.513c15.166,0,27.503-12.343,27.503-27.513v-50.982
			C400.783,136.211,397.916,129.299,392.735,124.133z M173.209,465.764c0,4.073-3.309,7.387-7.377,7.387
			c-1.969,0-3.816-0.765-5.224-2.177c-1.388-1.384-2.153-3.233-2.153-5.21v-50.982c0-4.073,3.309-7.387,7.377-7.387
			c4.068,0,7.377,3.313,7.377,7.387V465.764z M308.792,125.193v52.367l-25.329-26.184L308.792,125.193z M308.793,326.35v19.631
			c-7.968,1.378-15.394,4.34-21.948,8.556l-3.223-3.332L308.793,326.35z M295.12,110.378l-25.658,26.523l-25.657-26.523H295.12z
			 M230.132,125.193l18.643,19.272c-6.024-1.648-12.253-2.792-18.643-3.38V125.193z M220.063,338.19
			c-23.695,0-45.251-9.338-61.181-24.527c-16.956-16.169-27.538-38.97-27.538-64.194c0-48.923,39.801-88.725,88.724-88.725
			c48.922,0,88.724,39.801,88.724,88.725c0,13.92-3.226,27.1-8.964,38.836C285.399,317.815,255.068,338.19,220.063,338.19z
			 M267.188,434.049l-32.959-34.072l35.071-34.63l2.679,2.771c-7.871,10.098-12.576,22.777-12.576,36.541
			C259.403,415.342,262.243,425.37,267.188,434.049z M230.132,375.735V357.85c7.858-0.724,15.477-2.282,22.765-4.593
			L230.132,375.735z M230.132,424.691l25.329,26.184l-25.329,26.183V424.691z M243.804,491.873l25.658-26.523l25.657,26.523H243.804
			z M308.792,477.06l-20.88-21.585c6.288,3.858,13.345,6.569,20.88,7.873V477.06z M358.417,404.659
			c0,21.752-17.697,39.449-39.449,39.449c-21.746,0-39.439-17.697-39.439-39.449c0-21.746,17.693-39.439,39.439-39.439
			C340.72,365.22,358.417,382.912,358.417,404.659z M380.656,194.554c0,4.073-3.309,7.387-7.377,7.387
			c-4.073,0-7.387-3.313-7.387-7.387v-25.432c0-0.02,0.003-0.038,0.003-0.058s-0.003-0.038-0.003-0.058v-25.432
			c0.001-4.074,3.315-7.387,7.387-7.387c1.969,0,3.816,0.765,5.222,2.176c1.39,1.385,2.155,3.235,2.155,5.211V194.554z"/>
	</g>
</g>
<g>
	<g>
		<path d="M319.04,395.373c-12.95,0-12.972,20.127,0,20.127C331.99,415.5,332.012,395.373,319.04,395.373z"/>
	</g>
</g>
<g>
	<g>
		<path d="M318.856,0c-12.951,0-12.973,20.127,0,20.127C331.807,20.127,331.828,0,318.856,0z"/>
	</g>
</g>
<g>
</g>
<g>
</g>
<g>
</g>
<g>
</g>
<g>
</g>
<g>
</g>
<g>
</g>
<g>
</g>
<g>
</g>
<g>
</g>
<g>
</g>
<g>
</g>
<g>
</g>
<g>
</g>
<g>
</g>
</svg>
