<svg height="511pt" viewBox="-76 0 511 511.995" width="511pt" xmlns="http://www.w3.org/2000/svg"><path d="m114.480469 435.308594h136.28125v26.453125h-136.28125zm0 0" fill="#4c94c3"/><path d="m114.480469 435.308594h24.628906l-7.847656 26.453125h-16.78125zm0 0" fill="#3b7ca8"/><path d="m250.761719 435.308594v26.453125h-16.789063l-7.839844-26.453125zm0 0" fill="#3b7ca8"/><path d="m127.160156 367.101562h110.921875v26.449219h-110.921875zm0 0" fill="#4c94c3"/><path d="m127.160156 367.101562h32.191406l-7.851562 26.449219h-24.339844zm0 0" fill="#3b7ca8"/><path d="m238.082031 393.550781h-24.339843l-7.851563-26.449219h32.191406zm0 0" fill="#3b7ca8"/><path d="m135.859375 296.960938h93.511719v26.4375h-93.511719zm0 0" fill="#4c94c3"/><path d="m135.859375 296.960938h44.300781l-7.847656 26.4375h-36.453125zm0 0" fill="#3b7ca8"/><path d="m229.371094 323.398438h-36.449219l-7.839844-26.4375h44.289063zm0 0" fill="#3b7ca8"/><path d="m289.582031 484.601562h-36.3125l-62.546875-210.820312-6.5625-22.109375-1.539062-5.191406-1.539063 5.191406-6.5625 22.109375-62.546875 210.820312h-36.320312l62.546875-210.839843 6.5625-22.089844 11.960937-40.320313 9.207032-31.023437c2.191406-7.386719 8.980468-12.449219 16.691406-12.449219 7.699218 0 14.488281 5.0625 16.691406 12.449219l9.199219 31.023437 11.960937 40.320313 6.558594 22.089844zm0 0" fill="#bcdde2"/><g fill="#8bc1c6"><path d="m181.082031 251.671875-6.5625 22.109375h-35.417969c-.300781 0-.601562-.011719-.902343-.019531l6.5625-22.089844zm0 0"/><path d="m227.03125 273.761719c-.289062.007812-.589844.019531-.890625.019531h-35.417969l-6.5625-22.109375h36.3125zm0 0"/><path d="m208.511719 211.351562c-7.972657 3.347657-16.722657 5.199219-25.890625 5.199219-9.171875 0-17.921875-1.851562-25.898438-5.199219l9.207032-31.023437c2.191406-7.386719 8.980468-12.449219 16.691406-12.449219 7.699218 0 14.488281 5.0625 16.691406 12.449219zm0 0"/></g><path d="m237.726562 149.441406c0 30.4375-24.671874 55.109375-55.109374 55.109375-30.433594 0-55.105469-24.671875-55.105469-55.109375 0-30.433594 24.671875-55.105468 55.105469-55.105468 30.4375 0 55.109374 24.671874 55.109374 55.105468zm0 0" fill="#ffbf00"/><path d="m211.761719 149.441406c0 16.09375-13.046875 29.144532-29.144531 29.144532-16.09375 0-29.140626-13.050782-29.140626-29.144532s13.046876-29.140625 29.140626-29.140625c16.097656 0 29.144531 13.046875 29.144531 29.140625zm0 0" fill="#ffd96e"/><path d="m108.898438 504.5h-42.042969c-5.734375 0-10.378907-4.648438-10.378907-10.378906v-1.128906c0-5.730469 4.648438-10.375 10.378907-10.375h42.042969c5.734374 0 10.378906 4.644531 10.378906 10.375v1.128906c0 5.730468-4.648438 10.378906-10.378906 10.378906zm0 0" fill="#ffbf00"/><path d="m298.382812 504.5h-42.042968c-5.734375 0-10.378906-4.648438-10.378906-10.378906v-1.128906c0-5.730469 4.648437-10.375 10.378906-10.375h42.042968c5.730469 0 10.378907 4.644531 10.378907 10.375v1.128906c0 5.730468-4.648438 10.378906-10.378907 10.378906zm0 0" fill="#ffbf00"/><path d="m226.140625 261.78125h-87.042969c-6.59375 0-11.9375-5.34375-11.9375-11.9375s5.34375-11.9375 11.9375-11.9375h87.042969c6.589844 0 11.933594 5.34375 11.933594 11.9375s-5.34375 11.9375-11.933594 11.9375zm0 0" fill="#ffbf00"/><path d="m355.96875 201.300781c-3.917969-1.351562-8.1875.726563-9.535156 4.644531-6.304688 18.277344-15.589844 35.28125-27.601563 50.542969-2.5625 3.257813-2 7.972657 1.253907 10.535157 1.375 1.082031 3.011718 1.605468 4.632812 1.605468 2.222656 0 4.421875-.980468 5.898438-2.863281 13.050781-16.582031 23.144531-35.066406 29.996093-54.929687 1.347657-3.914063-.730469-8.183594-4.644531-9.535157zm0 0"/><path d="m42.886719 34.558594c-3.304688-2.5-8.007813-1.84375-10.507813 1.460937-14.710937 19.457031-25.351562 41.222657-31.625 64.691407-1.070312 4.003906 1.308594 8.113281 5.308594 9.183593.648438.171875 1.300781.253907 1.941406.253907 3.3125 0 6.34375-2.210938 7.242188-5.5625 5.769531-21.589844 15.558594-41.613282 29.097656-59.519532 2.5-3.304687 1.847656-8.007812-1.457031-10.507812zm0 0"/><path d="m331.355469 54.675781c1.429687 2.238281 3.851562 3.464844 6.328125 3.464844 1.378906 0 2.777344-.382813 4.027344-1.179687 3.492187-2.230469 4.515624-6.867188 2.285156-10.359376-8.617188-13.496093-18.925782-25.898437-30.632813-36.859374-3.023437-2.832032-7.769531-2.675782-10.601562.347656-2.832031 3.023437-2.675781 7.769531.347656 10.601562 10.796875 10.109375 20.300781 21.539063 28.246094 33.984375zm0 0"/><path d="m182.617188 112.800781c-20.203126 0-36.640626 16.4375-36.640626 36.640625 0 20.207032 16.4375 36.644532 36.640626 36.644532 20.207031 0 36.644531-16.441407 36.644531-36.644532s-16.4375-36.640625-36.644531-36.640625zm0 58.285157c-11.933594 0-21.640626-9.710938-21.640626-21.644532s9.707032-21.640625 21.640626-21.640625c11.9375 0 21.644531 9.707031 21.644531 21.640625s-9.710938 21.644532-21.644531 21.644532zm0 0"/><path d="m298.382812 475.117188h-3.789062l-15.109375-50.921876c-1.175781-3.96875-5.351563-6.234374-9.324219-5.054687-3.96875 1.175781-6.234375 5.351563-5.054687 9.324219l13.839843 46.652344h-20.667968l-61.070313-205.835938h20.667969l37.539062 126.523438c.96875 3.257812 3.953126 5.367187 7.1875 5.367187.707032 0 1.425782-.101563 2.136719-.3125 3.972657-1.175781 6.234375-5.351563 5.058594-9.324219l-19.683594-66.332031c18.9375-7.269531 36.484375-17.507813 52.246094-30.511719 3.195313-2.636718 3.644531-7.363281 1.007813-10.558594-2.636719-3.195312-7.359376-3.648437-10.558594-1.011718-14.199219 11.71875-29.972656 21.003906-46.972656 27.664062l-6.710938-22.617187c55.917969-22.824219 93.101562-77.796875 93.101562-138.5625-.003906-82.492188-67.113281-149.605469-149.609374-149.605469-82.492188 0-149.605469 67.113281-149.605469 149.605469 0 20.664062 4.140625 40.679687 12.300781 59.492187 1.644531 3.796875 6.0625 5.542969 9.863281 3.894532 3.800781-1.648438 5.542969-6.066407 3.894531-9.863282-7.335937-16.917968-11.058593-34.925781-11.058593-53.523437 0-74.222657 60.386719-134.605469 134.605469-134.605469 74.222656 0 134.605468 60.382812 134.605468 134.605469 0 54.175781-32.851562 103.210937-82.390625 124.085937l-1.703125-5.730468c7.269532-2.816407 12.445313-9.867188 12.445313-18.117188 0-6.941406-3.664063-13.023438-9.152344-16.464844 28.3125-18.121094 45.886719-49.515625 45.886719-83.9375 0-17.832031-4.769532-35.335937-13.789063-50.613281-2.105469-3.566406-6.707031-4.75-10.273437-2.644531-3.566406 2.105468-4.75 6.703125-2.644532 10.269531 7.65625 12.96875 11.707032 27.832031 11.707032 42.988281 0 32.316406-18.226563 61.496094-46.859375 75.78125l-6.425781-21.65625c18.640624-10.855468 31.203124-31.046875 31.203124-54.125 0-10.09375-2.472656-20.140625-7.152343-29.054687-1.925781-3.664063-6.457031-5.078125-10.125-3.152344-3.667969 1.921875-5.082031 6.457031-3.15625 10.125 3.605469 6.867187 5.433593 14.296875 5.433593 22.082031 0 26.25-21.355468 47.609375-47.609374 47.609375-26.25 0-47.605469-21.359375-47.605469-47.609375s21.355469-47.609375 47.605469-47.609375c7.863281 0 15.355468 1.859375 22.273437 5.53125 3.65625 1.941407 8.195313.546875 10.140625-3.109375 1.941406-3.660156.546875-8.199218-3.113281-10.140625-8.972657-4.761719-19.105469-7.28125-29.296875-7.28125-34.523438 0-62.609375 28.085938-62.609375 62.609375 0 23.082032 12.5625 43.269532 31.203125 54.125l-6.425782 21.65625c-28.632812-14.285156-46.855468-43.464844-46.855468-75.78125 0-46.699218 37.988281-84.6875 84.6875-84.6875 16.972656 0 33.34375 5 47.34375 14.457032 3.433594 2.316406 8.097656 1.417968 10.414062-2.015626 2.320313-3.433593 1.417969-8.09375-2.015625-10.414062-16.492187-11.140625-35.765625-17.03125-55.742187-17.03125-54.96875 0-99.6875 44.722656-99.6875 99.691406 0 34.421875 17.570312 65.816406 45.882812 83.9375-5.484375 3.4375-9.152344 9.523438-9.152344 16.464844 0 8.25 5.175782 15.296875 12.445313 18.113281l-1.699219 5.734375c-22.046875-9.277344-41.195312-24.222656-55.652344-43.550781-2.480468-3.316406-7.179687-3.992187-10.5-1.511719-3.316406 2.480469-3.992187 7.179688-1.511718 10.496094 16.394531 21.921875 38.214844 38.78125 63.367187 49.039062l-6.710937 22.613282c-21.460938-8.402344-40.773438-20.847656-57.449219-37.042969-2.972656-2.882813-7.71875-2.816406-10.605469.15625-2.886718 2.972656-2.816406 7.71875.15625 10.605469 18.421875 17.890625 39.816406 31.5625 63.621094 40.699218l-18.839844 63.5c-1.175781 3.96875 1.085938 8.144532 5.058594 9.324219.710938.210938 1.429688.308594 2.136719.308594 3.234375 0 6.21875-2.105469 7.1875-5.367187l36.695312-123.683594h20.671875l-61.070312 205.832031h-20.671875l15.085937-50.839844c1.175782-3.96875-1.085937-8.144531-5.058594-9.324219-3.972656-1.175781-8.144531 1.085938-9.324218 5.058594l-16.347656 55.105469h-3.792969c-9.855469 0-17.875 8.023437-17.875 17.878906v1.128907c0 9.859374 8.019531 17.878906 17.875 17.878906h42.046875c9.855468 0 17.875-8.019532 17.875-17.878906v-1.128907c0-5.113281-2.167969-9.71875-5.621094-12.980469l3.191406-10.753906h50.773438v13.355469c0 4.144531 3.359375 7.5 7.5 7.5s7.5-3.355469 7.5-7.5v-13.355469h50.773437l3.191407 10.753906c-3.453126 3.261719-5.625 7.871094-5.625 12.980469v1.128907c0 9.859374 8.023437 17.878906 17.878906 17.878906h42.046875c9.855469 0 17.875-8.019532 17.875-17.878906v-1.128907c0-9.851562-8.019531-17.871093-17.878907-17.871093zm-132.988281-144.214844h9.722657v28.699218h-18.234376zm34.449219 0 8.511719 28.695312h-18.238281v-28.695312zm-26.601562-26.445313h18.753906l3.394531 11.445313h-25.546875zm4.449218-15 4.925782-16.605469 4.929687 16.605469zm35.113282 85.144531 3.398437 11.445313h-67.171875l3.398438-11.445313zm-68.222657 26.445313h30.535157v26.765625h-38.476563zm45.535157 0h30.535156l7.941406 26.765625h-38.476562zm-51.019532-146.765625c-2.445312 0-4.4375-1.992188-4.4375-4.4375s1.992188-4.4375 4.4375-4.4375h87.042969c2.445313 0 4.433594 1.992188 4.433594 4.4375s-1.988281 4.4375-4.433594 4.4375zm43.519532-42.230469c6.085937 0 11.964843-.890625 17.53125-2.515625l6.195312 20.871094h-47.449219l6.195313-20.871094c5.566406 1.625 11.445312 2.515625 17.527344 2.515625zm-70.839844 282.070313c0 1.589844-1.292969 2.878906-2.878906 2.878906h-42.042969c-1.585938 0-2.878907-1.289062-2.878907-2.878906v-1.128906c0-1.585938 1.292969-2.875 2.878907-2.875h42.042969c1.585937 0 2.878906 1.289062 2.878906 2.875zm17.015625-39.863282 3.398437-11.445312h100.851563l3.398437 11.445312zm172.46875 39.863282c0 1.589844-1.292969 2.878906-2.878907 2.878906h-42.042968c-1.589844 0-2.878906-1.289062-2.878906-2.878906v-1.128906c0-1.585938 1.289062-2.875 2.878906-2.875h42.042968c1.585938 0 2.878907 1.289062 2.878907 2.875zm0 0"/></svg>