<?xml version="1.0" encoding="iso-8859-1"?>
<!-- Generator: Adobe Illustrator 19.0.0, SVG Export Plug-In . SVG Version: 6.00 Build 0)  -->
<svg version="1.1" id="Capa_1" xmlns="http://www.w3.org/2000/svg" xmlns:xlink="http://www.w3.org/1999/xlink" x="0px" y="0px"
	 viewBox="0 0 512 512" style="enable-background:new 0 0 512 512;" xml:space="preserve">
<g>
	<g>
		<path d="M287.268,11.596c-0.3-0.036-0.603-0.061-0.912-0.061c-0.125,0-0.246,0.013-0.369,0.019
			c-0.27-0.006-0.539-0.021-0.81-0.021h-58.355c-0.273,0-0.542,0.015-0.813,0.021c-0.123-0.006-0.245-0.019-0.37-0.019
			c-0.311,0-0.615,0.025-0.915,0.062c-19.416,1.092-34.879,17.229-34.879,36.913v85.737h0.001c0,5.291,4.305,9.596,9.596,9.596
			c3.423,0,6.617-1.858,8.337-4.849c3.908-6.795,11.205-11.016,19.043-11.016h9.456V151.1h-13.07c-4.142,0-7.5,3.357-7.5,7.5v28.059
			c0,4.143,3.358,7.5,7.5,7.5h4.632l-0.095,0.624c-0.623,4.095,2.192,7.92,6.287,8.543c0.382,0.058,0.762,0.086,1.137,0.086
			c3.644,0,6.841-2.66,7.405-6.373l0.438-2.88h25.973l12.808,84.213c0.564,3.713,3.761,6.373,7.405,6.373
			c0.375,0,0.755-0.028,1.137-0.086c4.095-0.623,6.91-4.447,6.287-8.543l-12.465-81.957h4.631c4.142,0,7.5-3.357,7.5-7.5V158.6
			c0-4.143-3.358-7.5-7.5-7.5h-13.07v-23.123h9.459c7.838,0,15.135,4.221,19.045,11.019c1.721,2.989,4.915,4.846,8.335,4.846
			c5.292,0,9.597-4.305,9.597-9.596V48.51C322.154,28.823,306.688,12.685,287.268,11.596z M218.14,114.021
			c-4.813,1.169-9.336,3.292-13.294,6.215v-3.703c0.055-8.979,5.52-16.697,13.294-20.053V114.021z M218.14,80.727
			c-4.877,1.178-9.382,3.32-13.294,6.221v-4.492c0.055-8.979,5.52-16.698,13.294-20.054V80.727z M218.141,46.651
			c-4.877,1.178-9.382,3.32-13.294,6.221V48.51c-0.001-9.035,5.482-16.812,13.294-20.185V46.651z M251.28,127.977h9.439v23.123
			h-9.439V127.977z M233.141,26.534h15.358v19.078h-15.358V26.534z M233.141,60.612h15.358v19.077h-15.358V60.612z M233.141,112.978
			V94.689h15.358v18.289H233.141z M281.289,166.101v13.059h-50.58v-13.059H281.289z M278.857,112.978c0,0-15.358,0-15.358,0V94.689
			h15.358V112.978z M278.857,79.688h-15.358V60.612h15.358V79.688z M263.499,45.612V26.534h15.358v19.078H263.499z M293.857,28.324
			c7.814,3.372,13.298,11.149,13.298,20.186v4.365c-3.914-2.903-8.419-5.045-13.298-6.224V28.324z M293.857,62.404
			c7.812,3.374,13.295,11.151,13.295,20.187c0,0.016,0.002,0.032,0.002,0.048v4.313c-3.914-2.903-8.418-5.044-13.297-6.223V62.404z
			 M307.155,120.235c-3.958-2.923-8.482-5.046-13.297-6.215V96.48c7.812,3.373,13.295,11.151,13.295,20.187
			c0,0.016,0.002,0.032,0.002,0.048V120.235z"/>
	</g>
</g>
<g>
	<g>
		<path d="M351.397,468.941h-25.445l-16.13-106.047h14.349c4.142,0,7.5-3.357,7.5-7.5v-24.51c0-4.143-3.358-7.5-7.5-7.5h-20.358
			l-1.991-13.091c-0.623-4.095-4.441-6.905-8.542-6.287c-4.095,0.623-6.91,4.448-6.287,8.543l1.648,10.835h-9.842
			c-4.142,0-7.5,3.357-7.5,7.5v24.51c0,4.143,3.358,7.5,7.5,7.5h15.851l16.13,106.047H201.219l6.133-40.323h20.058
			c4.142,0,7.5-3.357,7.5-7.5v-24.51c0-4.143-3.358-7.5-7.5-7.5h-14.048l16.625-109.302h20.109c4.142,0,7.5-3.357,7.5-7.5v-24.51
			c0-4.143-3.358-7.5-7.5-7.5h-14.1l1.381-9.08c0.623-4.095-2.192-7.92-6.287-8.543c-4.092-0.614-7.919,2.192-8.542,6.287
			l-1.724,11.336h-16.101c-4.142,0-7.5,3.357-7.5,7.5v24.51c0,4.143,3.358,7.5,7.5,7.5h10.091l-16.625,109.302h-16.153
			c-4.142,0-7.5,3.357-7.5,7.5v24.51c0,4.143,3.358,7.5,7.5,7.5h10.143l-6.133,40.323h-25.445c-4.142,0-7.5,3.357-7.5,7.5V504.5
			c0,4.143,3.358,7.5,7.5,7.5h8.642c4.142,0,7.5-3.357,7.5-7.5s-3.358-7.5-7.5-7.5h-1.142v-13.059h175.795V497H203.421
			c-4.142,0-7.5,3.357-7.5,7.5s3.358,7.5,7.5,7.5h147.976c4.142,0,7.5-3.357,7.5-7.5v-28.059
			C358.897,472.299,355.539,468.941,351.397,468.941z M286.299,347.895v-9.51h30.373v9.51H286.299z M212.223,264.807v-9.51h30.373
			v9.51H212.223z M189.536,413.619v-9.51h30.373v9.51H189.536z"/>
	</g>
</g>
<g>
	<g>
		<path d="M365.311,44.613c-2.422-3.364-7.108-4.127-10.47-1.707s-4.125,7.106-1.706,10.469c6.161,8.559,9.417,18.662,9.417,29.217
			s-3.256,20.657-9.417,29.218c-2.419,3.361-1.656,8.049,1.707,10.468c1.326,0.955,2.857,1.414,4.375,1.414
			c2.331,0,4.628-1.084,6.094-3.12c8.009-11.128,12.242-24.261,12.242-37.979C377.553,68.873,373.32,55.74,365.311,44.613z"/>
	</g>
</g>
<g>
	<g>
		<path d="M397.035,27.981c-2.418-3.361-7.107-4.124-10.468-1.707c-3.362,2.42-4.126,7.106-1.707,10.469
			c9.667,13.433,14.777,29.287,14.777,45.849c0,16.563-5.11,32.416-14.777,45.848c-2.419,3.361-1.656,8.049,1.706,10.468
			c1.326,0.954,2.857,1.414,4.375,1.414c2.331,0,4.628-1.084,6.094-3.12c11.515-15.999,17.602-34.883,17.602-54.609
			C414.637,62.866,408.55,43.981,397.035,27.981z"/>
	</g>
</g>
<g>
	<g>
		<path d="M426.649,3.12c-2.42-3.362-7.106-4.126-10.469-1.706c-3.362,2.419-4.125,7.106-1.706,10.468
			c14.909,20.716,22.79,45.167,22.79,70.71c0,25.543-7.881,49.993-22.79,70.709c-2.419,3.361-1.656,8.049,1.706,10.468
			c1.326,0.955,2.857,1.414,4.375,1.414c2.331,0,4.628-1.084,6.094-3.12c16.758-23.283,25.615-50.764,25.615-79.471
			C452.264,53.885,443.406,26.403,426.649,3.12z"/>
	</g>
</g>
<g>
	<g>
		<path d="M149.448,82.591c0-10.555,3.256-20.658,9.417-29.217c2.419-3.362,1.656-8.049-1.706-10.469
			c-3.361-2.419-8.048-1.655-10.469,1.705c-8.009,11.128-12.242,24.261-12.242,37.98c0,13.719,4.233,26.852,12.242,37.979
			c1.465,2.038,3.762,3.122,6.093,3.122c1.517,0,3.049-0.46,4.375-1.414c3.362-2.419,4.126-7.106,1.707-10.468
			C152.704,103.248,149.448,93.146,149.448,82.591z"/>
	</g>
</g>
<g>
	<g>
		<path d="M127.138,128.437c-9.667-13.43-14.777-29.283-14.777-45.846c0-16.562,5.11-32.416,14.777-45.849
			c2.419-3.362,1.656-8.049-1.707-10.469c-3.363-2.42-8.049-1.655-10.468,1.707c-11.515,16-17.602,34.885-17.602,54.61
			c0,19.727,6.087,38.61,17.602,54.609c1.466,2.037,3.763,3.12,6.094,3.12c1.517,0,3.049-0.46,4.375-1.414
			C128.794,136.485,129.557,131.799,127.138,128.437z"/>
	</g>
</g>
<g>
	<g>
		<path d="M74.735,82.591c0-25.543,7.881-49.994,22.79-70.71c2.419-3.361,1.656-8.049-1.706-10.468
			c-3.364-2.418-8.05-1.656-10.469,1.707C68.592,26.403,59.735,53.884,59.735,82.591c0,28.707,8.857,56.188,25.615,79.471
			c1.466,2.037,3.763,3.12,6.094,3.12c1.517,0,3.049-0.46,4.375-1.414c3.362-2.419,4.125-7.106,1.706-10.468
			C82.615,132.584,74.735,108.133,74.735,82.591z"/>
	</g>
</g>
<g>
	<g>
		<path d="M364.433,334.852h-9.489c-4.142,0-7.5,3.357-7.5,7.5s3.358,7.5,7.5,7.5h9.489c4.142,0,7.5-3.357,7.5-7.5
			S368.575,334.852,364.433,334.852z"/>
	</g>
</g>
<g>
	<g>
		<path d="M365.549,311.158c-2.072-3.586-6.659-4.814-10.246-2.744l-8.217,4.745c-3.587,2.071-4.816,6.658-2.745,10.246
			c1.39,2.405,3.91,3.75,6.502,3.75c1.272,0,2.563-0.324,3.744-1.006l8.217-4.745C366.391,319.332,367.62,314.746,365.549,311.158z"
			/>
	</g>
</g>
<g>
	<g>
		<path d="M362.803,363.299l-8.217-4.744c-3.588-2.071-8.175-0.843-10.245,2.745c-2.071,3.587-0.842,8.174,2.745,10.245l8.217,4.744
			c1.181,0.682,2.471,1.006,3.743,1.006c2.592,0,5.113-1.345,6.502-3.751C367.62,369.957,366.39,365.371,362.803,363.299z"/>
	</g>
</g>
<g>
	<g>
		<path d="M151.466,401.364h-9.489c-4.142,0-7.5,3.357-7.5,7.5s3.358,7.5,7.5,7.5h9.489c4.142,0,7.5-3.357,7.5-7.5
			S155.608,401.364,151.466,401.364z"/>
	</g>
</g>
<g>
	<g>
		<path d="M162.07,427.812c-2.071-3.588-6.658-4.814-10.245-2.745l-8.217,4.744c-3.587,2.071-4.816,6.658-2.745,10.245
			c1.389,2.406,3.91,3.751,6.502,3.751c1.272,0,2.562-0.324,3.743-1.006l8.217-4.744
			C162.912,435.986,164.141,431.399,162.07,427.812z"/>
	</g>
</g>
<g>
	<g>
		<path d="M159.325,379.67l-8.217-4.745c-3.586-2.069-8.174-0.843-10.246,2.744c-2.071,3.588-0.842,8.175,2.745,10.246l8.217,4.745
			c1.181,0.682,2.471,1.006,3.744,1.006c2.591,0,5.113-1.345,6.502-3.75C164.141,386.328,162.912,381.741,159.325,379.67z"/>
	</g>
</g>
<g>
	<g>
		<path d="M173.333,252.862h-9.489c-4.142,0-7.5,3.357-7.5,7.5s3.358,7.5,7.5,7.5h9.489c4.142,0,7.5-3.357,7.5-7.5
			S177.475,252.862,173.333,252.862z"/>
	</g>
</g>
<g>
	<g>
		<path d="M183.937,279.31c-2.071-3.588-6.658-4.815-10.245-2.745l-8.218,4.744c-3.587,2.07-4.816,6.657-2.745,10.245
			c1.389,2.406,3.91,3.751,6.502,3.751c1.272,0,2.562-0.324,3.743-1.006l8.218-4.744
			C184.779,287.485,186.008,282.897,183.937,279.31z"/>
	</g>
</g>
<g>
	<g>
		<path d="M181.192,231.167l-8.218-4.744c-3.589-2.074-8.175-0.843-10.245,2.745c-2.071,3.588-0.842,8.175,2.745,10.245l8.218,4.744
			c1.182,0.683,2.471,1.006,3.743,1.006c2.592,0,5.113-1.345,6.502-3.751C186.008,237.825,184.779,233.238,181.192,231.167z"/>
	</g>
</g>
<g>
</g>
<g>
</g>
<g>
</g>
<g>
</g>
<g>
</g>
<g>
</g>
<g>
</g>
<g>
</g>
<g>
</g>
<g>
</g>
<g>
</g>
<g>
</g>
<g>
</g>
<g>
</g>
<g>
</g>
</svg>
