<?xml version="1.0" encoding="iso-8859-1"?>
<!-- Generator: Adobe Illustrator 19.0.0, SVG Export Plug-In . SVG Version: 6.00 Build 0)  -->
<svg version="1.1" id="Capa_1" xmlns="http://www.w3.org/2000/svg" xmlns:xlink="http://www.w3.org/1999/xlink" x="0px" y="0px"
	 viewBox="0 0 511.999 511.999" style="enable-background:new 0 0 511.999 511.999;" xml:space="preserve">
<rect x="243.599" y="109.629" style="fill:#FC4747;" width="24.803" height="65.57"/>
<g>
	<rect x="243.599" y="109.629" style="fill:#E20F0A;" width="24.803" height="24.824"/>
	<rect x="243.599" y="148.779" style="fill:#E20F0A;" width="24.803" height="26.417"/>
</g>
<polygon style="fill:#618BAA;" points="321.366,489.56 190.632,489.56 193.402,471.343 198.233,439.558 205.723,390.327 
	221.199,288.536 228.689,239.305 234.423,201.613 237.498,181.407 274.5,181.407 277.575,201.613 296.127,323.62 303.616,372.851 
	318.596,471.343 "/>
<g>
	<path style="fill:#4E7693;" d="M262.19,251.483v24.874c0,6.718-5.46,12.178-12.178,12.178h-28.813l7.49-49.231h21.322
		C256.73,239.305,262.19,244.754,262.19,251.483z"/>
	<path style="fill:#4E7693;" d="M239.162,402.505v24.874c0,6.729-5.45,12.178-12.178,12.178h-28.751l7.49-49.231h21.261
		C233.713,390.327,239.162,395.777,239.162,402.505z"/>
	<path style="fill:#4E7693;" d="M303.616,372.851h-24.478c-6.729,0-12.178-5.45-12.178-12.178v-24.874
		c0-6.718,5.45-12.178,12.178-12.178h16.989L303.616,372.851z"/>
	<polygon style="fill:#4E7693;" points="277.575,201.613 234.423,201.613 237.498,181.407 274.5,181.407 	"/>
	<polygon style="fill:#4E7693;" points="321.366,489.56 190.632,489.56 193.402,471.343 318.596,471.343 	"/>
</g>
<path style="fill:#00D8E0;" d="M315.531,49.231v87.015c0,1.167-0.954,2.121-2.131,2.121c-0.781,0-1.472-0.426-1.867-1.106
	c-3.725-6.485-9.824-11.427-17.111-13.67c-2.781-0.863-5.744-1.319-8.809-1.319h-59.228c-3.065,0-6.028,0.457-8.809,1.319
	c-7.287,2.243-13.386,7.185-17.111,13.67c-0.386,0.68-1.086,1.106-1.867,1.106c-0.589,0-1.116-0.243-1.502-0.619
	c-0.386-0.386-0.619-0.923-0.619-1.502V49.231c0-13.457,8.88-24.844,21.099-28.599c2.791-0.863,5.744-1.319,8.809-1.319h59.228
	c3.065,0,6.018,0.457,8.809,1.319C306.641,24.387,315.531,35.773,315.531,49.231z"/>
<g>
	<path style="fill:#98F4F4;" d="M232.799,19.312V122.27h-6.414c-3.065,0-6.028,0.457-8.809,1.319V20.632
		c2.791-0.863,5.744-1.319,8.809-1.319L232.799,19.312L232.799,19.312z"/>
	<rect x="248.389" y="19.312" style="fill:#98F4F4;" width="15.223" height="102.96"/>
	<path style="fill:#98F4F4;" d="M294.422,20.632V123.59c-2.781-0.863-5.744-1.319-8.809-1.319h-6.414V19.312h6.414
		C288.678,19.312,291.631,19.769,294.422,20.632z"/>
	<path style="fill:#98F4F4;" d="M315.521,83.817v34.587c0-13.457-8.88-24.834-21.099-28.589c-2.781-0.863-5.744-1.33-8.819-1.33
		h-59.217c-3.065,0-6.018,0.457-8.809,1.319c-12.219,3.755-21.109,15.142-21.109,28.599V83.817c0-13.457,8.89-24.844,21.109-28.599
		c2.791-0.862,5.744-1.319,8.809-1.319h59.217c3.075,0,6.038,0.467,8.819,1.33C306.641,58.984,315.521,70.36,315.521,83.817z"/>
</g>
<path style="fill:#618BAA;" d="M283.187,189.433H228.81c-3.363,0-6.089-2.726-6.089-6.089v-16.298c0-3.363,2.726-6.089,6.089-6.089
	h54.377c3.363,0,6.089,2.726,6.089,6.089v16.298C289.277,186.707,286.55,189.433,283.187,189.433z"/>
<path style="fill:#89B4C9;" d="M289.277,173.189h-66.555v-6.142c0-3.363,2.726-6.089,6.089-6.089h54.377
	c3.363,0,6.089,2.726,6.089,6.089V173.189z"/>
<path style="fill:#618BAA;" d="M346.725,511.999H165.273c-3.363,0-6.089-2.726-6.089-6.089v-16.298c0-3.363,2.726-6.089,6.089-6.089
	h181.453c3.363,0,6.089,2.726,6.089,6.089v16.298C352.814,509.273,350.088,511.999,346.725,511.999z"/>
<g>
	<path style="fill:#FC4747;" d="M243.918,276.354h-33.869c-3.363,0-6.089-2.726-6.089-6.089v-12.696
		c0-3.363,2.726-6.089,6.089-6.089h33.869c3.363,0,6.089,2.726,6.089,6.089v12.695C250.008,273.628,247.281,276.354,243.918,276.354
		z"/>
	<path style="fill:#FC4747;" d="M319.095,360.677h-33.869c-3.363,0-6.089-2.726-6.089-6.089v-12.695
		c0-3.363,2.726-6.089,6.089-6.089h33.869c3.363,0,6.089,2.726,6.089,6.089v12.695C325.184,357.951,322.458,360.677,319.095,360.677
		z"/>
	<path style="fill:#FC4747;" d="M220.895,427.377h-33.869c-3.363,0-6.089-2.726-6.089-6.089v-12.695
		c0-3.363,2.726-6.089,6.089-6.089h33.869c3.363,0,6.089,2.726,6.089,6.089v12.695C226.984,424.651,224.258,427.377,220.895,427.377
		z"/>
</g>
<g>
	<path style="fill:#98F4F4;" d="M360.75,125.529c-1.54,0-3.094-0.466-4.44-1.435c-3.412-2.455-4.187-7.212-1.732-10.623
		c6.252-8.688,9.557-18.941,9.557-29.652s-3.305-20.965-9.557-29.651c-2.455-3.412-1.68-8.168,1.731-10.624
		c3.412-2.456,8.168-1.681,10.624,1.73c8.128,11.293,12.424,24.621,12.424,38.545c0,13.923-4.296,27.251-12.424,38.544
		C365.447,124.428,363.115,125.529,360.75,125.529z"/>
	<path style="fill:#98F4F4;" d="M392.947,142.406c-1.54,0-3.095-0.467-4.44-1.435c-3.412-2.455-4.187-7.212-1.731-10.623
		c9.811-13.631,14.997-29.72,14.997-46.529c0-16.808-5.186-32.898-14.997-46.53c-2.455-3.412-1.68-8.168,1.732-10.624
		c3.411-2.453,8.169-1.679,10.624,1.732c11.686,16.238,17.864,35.403,17.864,55.422c0,20.02-6.177,39.184-17.864,55.421
		C397.644,141.306,395.313,142.406,392.947,142.406z"/>
	<path style="fill:#98F4F4;" d="M423.001,167.637c-1.54,0-3.094-0.466-4.44-1.435c-3.412-2.455-4.187-7.212-1.731-10.623
		c15.131-21.024,23.129-45.837,23.129-71.76s-7.998-50.737-23.129-71.761c-2.455-3.411-1.68-8.168,1.731-10.623
		c3.413-2.456,8.168-1.681,10.624,1.731c17.007,23.629,25.996,51.519,25.996,80.653s-8.989,57.023-25.996,80.652
		C427.698,166.536,425.366,167.637,423.001,167.637z"/>
	<path style="fill:#98F4F4;" d="M151.248,125.529c-2.366,0-4.697-1.1-6.184-3.166c-8.128-11.293-12.424-24.621-12.424-38.544
		c0-13.924,4.296-27.252,12.424-38.545c2.457-3.41,7.213-4.185,10.624-1.73c3.412,2.456,4.187,7.212,1.731,10.624
		c-6.252,8.686-9.557,18.94-9.557,29.651s3.305,20.964,9.557,29.652c2.455,3.411,1.68,8.168-1.732,10.623
		C154.343,125.062,152.788,125.529,151.248,125.529z"/>
	<path style="fill:#98F4F4;" d="M119.051,142.406c-2.366,0-4.697-1.099-6.184-3.167c-11.686-16.237-17.864-35.401-17.864-55.421
		c0-20.019,6.177-39.184,17.864-55.422c2.455-3.412,7.211-4.188,10.624-1.732c3.412,2.456,4.187,7.212,1.732,10.624
		c-9.811,13.632-14.997,29.722-14.997,46.53c0,16.809,5.186,32.898,14.997,46.529c2.455,3.411,1.68,8.168-1.731,10.623
		C122.145,141.939,120.59,142.406,119.051,142.406z"/>
	<path style="fill:#98F4F4;" d="M88.997,167.637c-2.366,0-4.697-1.099-6.184-3.166c-17.007-23.629-25.996-51.518-25.996-80.652
		s8.989-57.024,25.996-80.653c2.455-3.412,7.211-4.186,10.624-1.731c3.412,2.455,4.187,7.212,1.731,10.623
		C80.038,33.081,72.04,57.895,72.04,83.818s7.998,50.736,23.129,71.76c2.455,3.411,1.68,8.168-1.731,10.623
		C92.092,167.17,90.537,167.637,88.997,167.637z"/>
	<path style="fill:#98F4F4;" d="M366.045,355.052h-9.63c-4.204,0-7.611-3.407-7.611-7.611s3.408-7.611,7.611-7.611h9.63
		c4.204,0,7.611,3.407,7.611,7.611S370.249,355.052,366.045,355.052z"/>
	<path style="fill:#98F4F4;" d="M352.253,332.017c-2.63,0-5.188-1.365-6.599-3.806c-2.102-3.641-0.855-8.296,2.785-10.398
		l8.339-4.816c3.64-2.101,8.295-0.854,10.398,2.785c2.102,3.641,0.855,8.296-2.785,10.398l-8.339,4.816
		C354.853,331.688,353.544,332.017,352.253,332.017z"/>
	<path style="fill:#98F4F4;" d="M360.578,382.903c-1.291,0-2.6-0.329-3.799-1.021l-8.339-4.815
		c-3.64-2.102-4.888-6.757-2.786-10.397c2.101-3.641,6.756-4.888,10.397-2.786l8.339,4.815c3.64,2.102,4.888,6.757,2.786,10.397
		C365.767,381.538,363.209,382.903,360.578,382.903z"/>
	<path style="fill:#98F4F4;" d="M149.912,422.552h-9.63c-4.204,0-7.611-3.407-7.611-7.611c0-4.204,3.408-7.612,7.611-7.612h9.63
		c4.204,0,7.611,3.407,7.611,7.612C157.524,419.145,154.116,422.552,149.912,422.552z"/>
	<path style="fill:#98F4F4;" d="M145.749,450.403c-2.63,0-5.189-1.365-6.599-3.807c-2.102-3.64-0.854-8.295,2.786-10.397
		l8.339-4.815c3.641-2.1,8.295-0.855,10.397,2.786c2.102,3.64,0.854,8.295-2.786,10.397l-8.339,4.815
		C148.349,450.074,147.041,450.403,145.749,450.403z"/>
	<path style="fill:#98F4F4;" d="M154.075,399.517c-1.292,0-2.601-0.329-3.799-1.021l-8.339-4.816
		c-3.64-2.102-4.888-6.757-2.785-10.398c2.103-3.64,6.759-4.885,10.398-2.785l8.339,4.816c3.64,2.102,4.887,6.757,2.785,10.398
		C159.264,398.153,156.705,399.517,154.075,399.517z"/>
	<path style="fill:#98F4F4;" d="M172.104,271.843h-9.63c-4.204,0-7.611-3.407-7.611-7.611s3.408-7.611,7.611-7.611h9.63
		c4.204,0,7.611,3.407,7.611,7.611S176.308,271.843,172.104,271.843z"/>
	<path style="fill:#98F4F4;" d="M167.941,299.694c-2.63,0-5.189-1.365-6.599-3.807c-2.102-3.641-0.854-8.296,2.786-10.397
		l8.34-4.815c3.641-2.101,8.295-0.855,10.397,2.786s0.854,8.296-2.786,10.397l-8.34,4.815
		C170.541,299.365,169.232,299.694,167.941,299.694z"/>
	<path style="fill:#98F4F4;" d="M176.267,248.808c-1.291,0-2.6-0.328-3.799-1.021l-8.34-4.815c-3.64-2.101-4.888-6.756-2.786-10.397
		c2.101-3.641,6.755-4.891,10.397-2.786l8.34,4.815c3.64,2.101,4.888,6.756,2.786,10.397
		C181.456,247.443,178.897,248.808,176.267,248.808z"/>
</g>
<g>
	<path style="fill:#00D8E0;" d="M233.139,53.109v34.08h-6.32c-3.02,0-5.93,0.45-8.68,1.3v-34.08c2.75-0.85,5.66-1.3,8.68-1.3
		H233.139z"/>
	<rect x="248.499" y="53.109" style="fill:#00D8E0;" width="15" height="34.08"/>
	<path style="fill:#00D8E0;" d="M293.859,54.419v34.08c-2.74-0.85-5.66-1.31-8.69-1.31h-6.31v-34.08h6.31
		C288.199,53.109,291.119,53.569,293.859,54.419z"/>
</g>
<g>
</g>
<g>
</g>
<g>
</g>
<g>
</g>
<g>
</g>
<g>
</g>
<g>
</g>
<g>
</g>
<g>
</g>
<g>
</g>
<g>
</g>
<g>
</g>
<g>
</g>
<g>
</g>
<g>
</g>
</svg>
