<svg height="477pt" viewBox="-119 0 477 477.816" width="477pt" xmlns="http://www.w3.org/2000/svg"><path d="m72.320312 261.816406 48 62.398438 48-62.398438zm0 0" fill="#9bc9ff"/><path d="m120.320312 101.816406-112 368 112-145.601562-48-62.398438h96l-48 62.398438 112 145.601562zm0 0" fill="#9bc9ff"/><g fill="#1e81ce"><path d="m158.914062 124.457031-11.265624-11.359375c7.496093-7.488281 11.710937-17.648437 11.710937-28.242187s-4.214844-20.753907-11.710937-28.238281l11.265624-11.359376c10.527344 10.488282 16.445313 24.738282 16.445313 39.597657 0 14.863281-5.917969 29.113281-16.445313 39.601562zm0 0"/><path d="m204.234375 169.703125-11.335937-11.296875c40.625-40.613281 40.625-106.476562 0-147.09375l11.335937-11.3046875c46.855469 46.8632815 46.855469 122.8359375 0 169.6953125zm0 0"/><path d="m158.914062 124.457031-11.265624-11.359375c7.496093-7.488281 11.710937-17.648437 11.710937-28.242187s-4.214844-20.753907-11.710937-28.238281l11.265624-11.359376c10.527344 10.488282 16.445313 24.738282 16.445313 39.597657 0 14.863281-5.917969 29.113281-16.445313 39.601562zm0 0"/><path d="m204.234375 169.703125-11.335937-11.296875c40.625-40.613281 40.625-106.476562 0-147.09375l11.335937-11.3046875c46.855469 46.8632815 46.855469 122.8359375 0 169.6953125zm0 0"/><path d="m158.914062 124.457031-11.265624-11.359375c7.496093-7.488281 11.710937-17.648437 11.710937-28.242187s-4.214844-20.753907-11.710937-28.238281l11.265624-11.359376c10.527344 10.488282 16.445313 24.738282 16.445313 39.597657 0 14.863281-5.917969 29.113281-16.445313 39.601562zm0 0"/><path d="m181.585938 147.070312-11.320313-11.308593c28.105469-28.117188 28.105469-73.695313 0-101.808594l11.320313-11.335937c34.351562 34.363281 34.351562 90.066406 0 124.429687zm0 0"/><path d="m81.730469 124.457031c-10.53125-10.488281-16.449219-24.738281-16.449219-39.601562 0-14.859375 5.917969-29.109375 16.449219-39.597657l11.261719 11.359376c-7.496094 7.484374-11.710938 17.644531-11.710938 28.238281s4.214844 20.753906 11.710938 28.242187zm0 0"/><path d="m36.410156 169.703125c-46.863281-46.863281-46.863281-122.839844 0-169.703125l11.335938 11.304688c-40.632813 40.617187-40.632813 106.484374 0 147.101562zm0 0"/><path d="m81.730469 124.457031c-10.53125-10.488281-16.449219-24.738281-16.449219-39.601562 0-14.859375 5.917969-29.109375 16.449219-39.597657l11.261719 11.359376c-7.496094 7.484374-11.710938 17.644531-11.710938 28.238281s4.214844 20.753906 11.710938 28.242187zm0 0"/><path d="m36.410156 169.703125c-46.863281-46.863281-46.863281-122.839844 0-169.703125l11.335938 11.304688c-40.632813 40.617187-40.632813 106.484374 0 147.101562zm0 0"/><path d="m81.730469 124.457031c-10.53125-10.488281-16.449219-24.738281-16.449219-39.601562 0-14.859375 5.917969-29.109375 16.449219-39.597657l11.261719 11.359376c-7.496094 7.484374-11.710938 17.644531-11.710938 28.238281s4.214844 20.753906 11.710938 28.242187zm0 0"/><path d="m59.066406 147.070312c-34.355468-34.363281-34.355468-90.066406 0-124.429687l11.316406 11.3125c-28.105468 28.113281-28.105468 73.691406 0 101.808594zm0 0"/><path d="m240.167969 469.519531c.015625-.632812-.046875-1.261719-.183594-1.878906 0-.046875 0-.105469 0-.152344l-109.558594-360c10.214844-4.738281 15.765625-15.945312 13.339844-26.941406-2.425781-11-12.175781-18.832031-23.4375-18.832031s-21.011719 7.832031-23.4375 18.832031c-2.425781 10.996094 3.125 22.203125 13.34375 26.941406l-109.5625 360v.152344c-.136719.617187-.199219 1.246094-.183594 1.878906-.058593.410157-.085937.820313-.078125 1.234375.105469.503906.257813 1 .453125 1.476563.113281.488281.269531.96875.472657 1.425781.246093.351562.511718.683594.800781 1 .34375.507812.746093.972656 1.199219 1.382812.039062 0 .066406.089844.105468.121094.742188.5625 1.574219.988282 2.464844 1.265625l.085938.046875c.160156.046875.320312 0 .480468.046875.601563.171875 1.222656.269531 1.847656.296875.128907 0 .25-.082031.382813-.089844 1.085937-.1875 2.15625-.453124 3.203125-.796874 1.003906-.515626 1.890625-1.238282 2.597656-2.121094 0-.046875.089844-.054688.121094-.105469l105.695312-137.367187 105.664063 137.351562c.0625.089844.167969.121094.238281.199219.632813.746093 1.394532 1.367187 2.25 1.832031.246094.144531.5.277344.761719.394531.96875.441407 2.019531.679688 3.085937.703125h.089844c.757813-.003906 1.511719-.113281 2.238282-.328125l.089843-.046875c.886719-.273437 1.722657-.703125 2.460938-1.265625.042969 0 .066406-.085937.105469-.121093.453124-.410157.855468-.875 1.199218-1.382813.289063-.316406.558594-.648437.800782-1 .203124-.457031.359374-.933594.472656-1.425781.195312-.476563.351562-.972656.457031-1.476563.007813-.417969-.011719-.835937-.066406-1.25zm-119.847657-391.703125c4.417969 0 8 3.582032 8 8 0 4.417969-3.582031 8-8 8-4.417968 0-8-3.582031-8-8 0-4.417968 3.582032-8 8-8zm0 51.480469 37.894532 124.519531h-75.789063zm-91.558593 300.800781 46.191406-151.777344 35.28125 45.863282zm91.558593-119-31.761718-41.28125h63.515625zm10.089844 13.117188 35.277344-45.863282 46.191406 151.777344zm0 0"/></g></svg>