<?xml version="1.0" encoding="iso-8859-1"?>
<!-- Generator: Adobe Illustrator 19.0.0, SVG Export Plug-In . SVG Version: 6.00 Build 0)  -->
<svg version="1.1" id="Capa_1" xmlns="http://www.w3.org/2000/svg" xmlns:xlink="http://www.w3.org/1999/xlink" x="0px" y="0px"
	 viewBox="0 0 512.001 512.001" style="enable-background:new 0 0 512.001 512.001;" xml:space="preserve">
<g>
	<g>
		<path d="M217.724,368.24c-13.816,0-25.056,11.239-25.056,25.056c0,13.816,11.239,25.056,25.056,25.056
			c13.816,0,25.056-11.24,25.056-25.056C242.78,379.48,231.541,368.24,217.724,368.24z M217.726,403.168
			c-5.444,0-9.873-4.429-9.873-9.873c0-5.444,4.429-9.873,9.873-9.873s9.873,4.429,9.873,9.873S223.169,403.168,217.726,403.168z"/>
	</g>
</g>
<g>
	<g>
		<path d="M326.972,300.287c-11.743,0-21.297,9.553-21.297,21.297c0,11.743,9.553,21.296,21.297,21.296s21.297-9.553,21.297-21.296
			C348.269,309.84,338.716,300.287,326.972,300.287z M326.972,327.698c-3.371,0-6.114-2.743-6.114-6.114
			c0-3.372,2.743-6.115,6.114-6.115s6.114,2.743,6.114,6.115C333.086,324.955,330.343,327.698,326.972,327.698z"/>
	</g>
</g>
<g>
	<g>
		<path d="M386.226,400.147c4.193,0,7.591-3.398,7.591-7.591v-16.377c0-10.826-8.808-19.633-19.633-19.633
			c-18.197,0-33,14.803-33,32.999v6.339h-6.067v-28.26c21.914-3.867,38.619-23.031,38.619-46.037s-16.705-42.172-38.619-46.038
			v-72.272c13.41-3.767,23.274-16.096,23.274-30.694v-41.163c0-17.581-14.303-31.884-31.884-31.884
			c-17.581,0-31.884,14.303-31.884,31.884v20.05h-68.834v-22.033c12.128-2.093,21.386-12.682,21.386-25.398
			s-9.258-23.305-21.386-25.398V7.591c0-4.193-3.398-7.591-7.591-7.591s-7.591,3.398-7.591,7.591v32.774h-5.562v-5.445
			c0-11.442-9.308-20.75-20.75-20.75c-11.442,0-20.75,9.308-20.75,20.75v26.072c0,11.442,9.308,20.75,20.75,20.75
			c11.442,0,20.75-9.308,20.75-20.75v-5.445h5.562v25.083c-8.84,4.091-14.993,13.041-14.993,23.406
			c0,10.365,6.151,19.315,14.993,23.406v31.618v38.313h-6.068v-6.339c0-18.197-14.803-33-33-33
			c-10.825,0-19.633,8.807-19.633,19.633v43.829c0,4.194,3.398,7.591,7.591,7.591c4.194,0,7.591-3.398,7.591-7.591v-43.829
			c0-2.455,1.997-4.451,4.451-4.451c9.824,0,17.818,7.992,17.818,17.818v66.641c0,9.824-7.992,17.818-17.818,17.818
			c-2.455,0-4.451-1.997-4.451-4.451v-14.95c0-4.194-3.398-7.591-7.591-7.591c-4.193,0-7.591,3.398-7.591,7.591v14.95
			c0,10.826,8.808,19.633,19.633,19.633c18.197,0,33-14.803,33-33v-5.231h6.068v61.881c-12.298,1.104-24.173,5.05-34.699,11.596
			c-3.561,2.215-4.652,6.896-2.437,10.456c2.215,3.56,6.897,4.652,10.456,2.437c10.138-6.305,21.826-9.637,33.8-9.637
			c35.356,0,64.119,28.763,64.119,64.119s-28.763,64.12-64.119,64.12c-35.356,0-64.12-28.764-64.12-64.12
			c0-11.351,3.02-22.518,8.735-32.294c2.116-3.62,0.898-8.27-2.722-10.385c-3.619-2.116-8.27-0.899-10.385,2.722
			c-7.072,12.099-10.811,25.916-10.811,39.957c0,41.327,31.781,75.353,72.183,78.967v32.146c0,4.194,3.398,7.591,7.591,7.591
			c0.521,0,1.029-0.053,1.521-0.153c0.488,0.096,0.984,0.153,1.482,0.153c1.66,0,3.331-0.542,4.73-1.657l48.154-38.416
			l48.153,38.416c1.399,1.115,3.07,1.657,4.73,1.657c0.089,0,0.178-0.011,0.267-0.014c0.097,0.004,0.192,0.014,0.29,0.014
			c4.193,0,7.591-3.398,7.591-7.591v-53.456h6.067v5.232c0,18.197,14.803,33,33,33c10.825,0,19.633-8.807,19.633-19.633v-42.402
			c0-4.193-3.398-7.591-7.591-7.591s-7.591,3.398-7.591,7.591v42.402c0,2.455-1.997,4.451-4.451,4.451
			c-9.824,0-17.818-7.992-17.818-17.818v-66.642c0-9.823,7.992-17.817,17.818-17.817c2.455,0,4.451,1.997,4.451,4.451v16.377
			C378.634,396.749,382.032,400.147,386.226,400.147z M189.861,60.993c0,3.07-2.498,5.567-5.567,5.567s-5.567-2.497-5.567-5.567
			V34.921c0-3.07,2.498-5.567,5.567-5.567s5.567,2.497,5.567,5.567V60.993z M210.606,237.259h-6.068v-24.704h6.068V237.259z
			 M225.789,491.032v-18.842c12.383-1.256,23.923-5.389,33.967-11.694l2.154,1.719L225.789,491.032z M326.507,189.281
			c-8.994,0-16.331-7.153-16.669-16.065h33.339C342.837,182.128,335.501,189.281,326.507,189.281z M309.805,131.418
			c0-9.209,7.493-16.701,16.701-16.701c9.209,0,16.701,7.492,16.701,16.701v1.765h-33.402V131.418z M309.805,148.366h33.402v9.667
			h-33.402V148.366z M300.885,191.532c4.566,6.157,11.292,10.616,19.048,12.247v26.291l-15.879-12.669
			c0.103-1.044,0.158-2.1,0.158-3.171c0-7.488-2.59-14.378-6.913-19.837L300.885,191.532z M272.191,246.252
			c10.906,0,20.55-5.485,26.335-13.837l17.496,13.957l-41.938,33.457l-41.939-33.457l15.125-12.066
			C253.145,241.584,262.131,246.252,272.191,246.252z M255.354,214.231c0-9.285,7.553-16.838,16.838-16.838
			c9.285,0,16.838,7.554,16.838,16.838c0,9.285-7.553,16.838-16.838,16.838C262.907,231.069,255.354,223.516,255.354,214.231z
			 M319.933,262.675v12.677c-12.002,1.82-22.51,8.224-29.704,17.358l-3.973-3.169L319.933,262.675z M294.623,166.65v5.929
			c0,1.457,0.107,2.887,0.297,4.291l-10.007,7.983c-3.902-1.696-8.203-2.643-12.721-2.643c-3.553,0-6.968,0.59-10.163,1.663
			l-21.59-17.223H294.623z M248.612,192.594c-5.237,5.703-8.442,13.302-8.442,21.638c0,2.008,0.194,3.971,0.55,5.877l-14.932,11.912
			v-57.634L248.612,192.594z M210.796,104.036c0-5.844,4.753-10.598,10.598-10.598c5.844,0,10.598,4.754,10.598,10.598
			s-4.753,10.598-10.598,10.598C215.549,114.634,210.796,109.88,210.796,104.036z M225.789,314.401v-53.677l36.122,28.817
			l-31.859,25.416C228.643,314.735,227.222,314.546,225.789,314.401z M248.041,320.029l26.044-20.777l8.731,6.966
			c-1.681,4.817-2.606,9.984-2.606,15.367c0,11.685,4.318,22.373,11.429,30.578l-4.203,3.352
			C278.79,339.628,264.866,327.017,248.041,320.029z M274.084,452.503l-1.973-1.574c13.018-12.292,21.88-28.924,24.253-47.565
			l19.657,15.682L274.084,452.503z M319.933,489.081l-33.676-26.866l33.676-26.865V489.081z M319.933,402.743l-23.467-18.721
			c-0.561-4.795-1.539-9.464-2.919-13.96l10.039-8.008c4.952,2.873,10.468,4.872,16.347,5.763V402.743z M326.972,353.164
			c-17.414,0-31.58-14.167-31.58-31.579c0-17.414,14.167-31.58,31.58-31.58c17.414,0,31.58,14.167,31.58,31.58
			C358.552,338.998,344.386,353.164,326.972,353.164z M341.183,435.77h-6.067v-24.705h6.067V435.77z"/>
	</g>
</g>
<g>
	<g>
		<path d="M272.191,206.64h-0.094c-4.194,0-7.544,3.398-7.544,7.591c0,4.194,3.445,7.591,7.638,7.591s7.591-3.398,7.591-7.591
			C279.783,210.037,276.385,206.64,272.191,206.64z"/>
	</g>
</g>
<g>
	<g>
		<path d="M435.846,415.289l-9.604-0.028c-0.008,0-0.015,0-0.022,0c-4.182,0-7.578,3.385-7.591,7.569
			c-0.013,4.194,3.377,7.602,7.569,7.614l9.604,0.028c0.008,0,0.015,0,0.022,0c4.182,0,7.578-3.385,7.591-7.569
			C443.428,418.711,440.038,415.302,435.846,415.289z"/>
	</g>
</g>
<g>
	<g>
		<path d="M437.045,391.311c-2.085-3.638-6.724-4.894-10.363-2.809l-8.331,4.779c-3.637,2.086-4.894,6.725-2.808,10.362
			c1.403,2.446,3.961,3.816,6.592,3.816c1.281,0,2.579-0.324,3.77-1.007l8.331-4.779
			C437.874,399.586,439.131,394.947,437.045,391.311z"/>
	</g>
</g>
<g>
	<g>
		<path d="M434.112,444.078l-8.303-4.827c-3.625-2.106-8.271-0.877-10.379,2.748c-2.106,3.625-0.877,8.272,2.748,10.379l8.303,4.827
			c1.201,0.697,2.512,1.029,3.809,1.029c2.616,0,5.161-1.353,6.57-3.776C438.967,450.832,437.737,446.186,434.112,444.078z"/>
	</g>
</g>
<g>
	<g>
		<path d="M120.855,216.75c-0.007,0-0.015,0-0.021,0l-9.604,0.027c-4.193,0.012-7.581,3.421-7.57,7.613
			c0.012,4.185,3.408,7.57,7.591,7.57c0.007,0,0.015,0,0.021,0l9.604-0.027c4.193-0.012,7.581-3.421,7.57-7.613
			C128.434,220.135,125.038,216.75,120.855,216.75z"/>
	</g>
</g>
<g>
	<g>
		<path d="M128.724,194.768l-8.331-4.778c-3.635-2.083-8.276-0.827-10.361,2.81c-2.086,3.637-0.829,8.277,2.808,10.363l8.331,4.777
			c1.19,0.683,2.488,1.007,3.769,1.007c2.632,0,5.189-1.371,6.593-3.817C133.619,201.493,132.36,196.853,128.724,194.768z"/>
	</g>
</g>
<g>
	<g>
		<path d="M131.645,243.488c-2.107-3.625-6.755-4.857-10.378-2.748l-8.304,4.827c-3.625,2.107-4.855,6.753-2.749,10.378
			c1.41,2.425,3.955,3.778,6.57,3.778c1.295,0,2.607-0.331,3.808-1.029l8.304-4.827C132.52,251.759,133.751,247.113,131.645,243.488
			z"/>
	</g>
</g>
<g>
	<g>
		<path d="M425.003,287.976c-2.966-2.964-7.772-2.964-10.736,0c-2.965,2.966-2.965,7.772,0,10.736
			c6.11,6.109,9.474,14.232,9.474,22.872c0,8.64-3.365,16.763-9.473,22.871c-2.966,2.965-2.966,7.772-0.001,10.735
			c1.483,1.483,3.425,2.224,5.369,2.224c1.941,0,3.885-0.741,5.367-2.223c8.978-8.977,13.922-20.913,13.922-33.608
			C438.923,308.889,433.98,296.953,425.003,287.976z"/>
	</g>
</g>
<g>
	<g>
		<path d="M450.696,279.156c-2.966-2.964-7.772-2.964-10.736,0c-2.965,2.966-2.965,7.772,0,10.736
			c8.466,8.465,13.128,19.719,13.128,31.693c0,11.971-4.661,23.227-13.127,31.692c-2.966,2.965-2.966,7.772-0.001,10.735
			c1.483,1.483,3.425,2.224,5.369,2.224c1.942,0,3.886-0.741,5.368-2.223c11.333-11.333,17.575-26.401,17.575-42.428
			C468.271,305.558,462.029,290.489,450.696,279.156z"/>
	</g>
</g>
<g>
	<g>
		<path d="M399.379,296.726c-2.966-2.962-7.772-2.962-10.737,0.001c-2.965,2.966-2.965,7.772,0,10.736
			c7.786,7.786,7.786,20.454,0,28.24c-2.965,2.966-2.965,7.772,0,10.736c1.483,1.482,3.426,2.223,5.369,2.223
			s3.886-0.741,5.369-2.223C413.084,332.734,413.084,310.432,399.379,296.726z"/>
	</g>
</g>
<g>
	<g>
		<path d="M97.733,416.168c-6.11-6.11-9.475-14.232-9.475-22.872s3.365-16.763,9.473-22.871c2.966-2.965,2.966-7.772,0.001-10.735
			c-2.965-2.964-7.772-2.966-10.735-0.001c-8.978,8.977-13.922,20.913-13.922,33.608c0,12.696,4.944,24.632,13.921,33.609
			c1.483,1.482,3.426,2.223,5.369,2.223s3.886-0.741,5.369-2.223C100.698,423.938,100.698,419.133,97.733,416.168z"/>
	</g>
</g>
<g>
	<g>
		<path d="M72.041,424.988c-8.467-8.466-13.129-19.72-13.129-31.693c0-11.971,4.661-23.227,13.127-31.692
			c2.966-2.965,2.966-7.772,0.001-10.735c-2.965-2.966-7.772-2.965-10.735-0.001C49.971,362.2,43.73,377.268,43.73,393.295
			c0,16.027,6.241,31.096,17.574,42.429c1.483,1.482,3.426,2.223,5.369,2.223c1.942,0,3.886-0.741,5.369-2.223
			C75.006,432.759,75.006,427.953,72.041,424.988z"/>
	</g>
</g>
<g>
	<g>
		<path d="M123.357,407.417c-3.771-3.771-5.848-8.786-5.848-14.12s2.078-10.35,5.849-14.12c2.964-2.967,2.964-7.773-0.001-10.738
			c-2.966-2.964-7.772-2.964-10.736,0c-6.64,6.64-10.296,15.467-10.296,24.857c0,9.39,3.657,18.217,10.297,24.857
			c1.482,1.482,3.425,2.223,5.368,2.223c1.942,0,3.886-0.741,5.369-2.224C126.323,415.187,126.323,410.38,123.357,407.417z"/>
	</g>
</g>
<g>
</g>
<g>
</g>
<g>
</g>
<g>
</g>
<g>
</g>
<g>
</g>
<g>
</g>
<g>
</g>
<g>
</g>
<g>
</g>
<g>
</g>
<g>
</g>
<g>
</g>
<g>
</g>
<g>
</g>
</svg>
