<?xml version="1.0" encoding="iso-8859-1"?>
<!-- Generator: Adobe Illustrator 19.0.0, SVG Export Plug-In . SVG Version: 6.00 Build 0)  -->
<svg version="1.1" id="Capa_1" xmlns="http://www.w3.org/2000/svg" xmlns:xlink="http://www.w3.org/1999/xlink" x="0px" y="0px"
	 viewBox="0 0 512 512" style="enable-background:new 0 0 512 512;" xml:space="preserve">
<g>
	<path style="fill:#EFEFEF;" d="M373.28,214.017c-10.732,0-19.463-8.731-19.463-19.463v-50.982c0-10.732,8.731-19.463,19.463-19.463
		c5.203,0,10.087,2.026,13.754,5.704c3.673,3.663,5.699,8.551,5.699,13.759v50.982C392.732,205.286,384.006,214.017,373.28,214.017z
		"/>
	<path style="fill:#EFEFEF;" d="M318.968,456.184c-28.406,0-51.515-23.114-51.515-51.525c0-28.405,23.11-51.515,51.515-51.515
		c28.41,0,51.525,23.11,51.525,51.515C370.493,433.07,347.378,456.184,318.968,456.184z"/>
	<path style="fill:#EFEFEF;" d="M220.063,350.266c-55.58,0-100.796-45.217-100.796-100.796c0-55.585,45.217-100.806,100.796-100.806
		c55.584,0,100.806,45.221,100.806,100.806C320.869,305.049,275.648,350.266,220.063,350.266z M220.063,228.76
		c-11.415,0-20.701,9.291-20.701,20.711c0,11.414,9.287,20.701,20.701,20.701c11.42,0,20.711-9.287,20.711-20.701
		C240.774,238.05,231.483,228.76,220.063,228.76z"/>
</g>
<path style="fill:#CCCCCC;" d="M220.068,274.531c-13.821,0-25.065-11.244-25.065-25.065c0-13.822,11.244-25.068,25.065-25.068
	c13.822,0,25.068,11.245,25.068,25.068C245.136,263.287,233.89,274.531,220.068,274.531z"/>
<path style="fill:#EFEFEF;" d="M165.832,485.227c-5.203,0-10.087-2.026-13.754-5.704c-3.673-3.661-5.699-8.549-5.699-13.759v-50.982
	c0-10.732,8.727-19.463,19.453-19.463s19.453,8.731,19.453,19.463v50.982C185.285,476.496,176.558,485.227,165.832,485.227z"/>
<path d="M252.85,249.47c0-18.079-14.708-32.787-32.787-32.787c-18.073,0-32.777,14.708-32.777,32.787
	c0,18.073,14.704,32.777,32.777,32.777C238.142,282.247,252.85,267.543,252.85,249.47z M207.414,249.47
	c0-6.981,5.675-12.66,12.65-12.66c6.981,0,12.66,5.68,12.66,12.66c0,6.975-5.68,12.65-12.66,12.65
	C213.088,262.12,207.414,256.445,207.414,249.47z"/>
<path d="M210.005,141.083c-55.32,5.094-98.788,51.755-98.788,108.388c0,32.823,14.604,62.3,37.655,82.274
	c16.716,14.485,37.878,23.964,61.133,26.107v72.36h-16.669v-15.427c0-15.171-12.338-27.514-27.503-27.514
	c-15.166,0-27.503,12.343-27.503,27.514v50.982c0,7.365,2.867,14.278,8.048,19.442c5.188,5.205,12.097,8.072,19.456,8.072
	c15.166,0,27.503-12.343,27.503-27.514v-15.427h16.669v51.599c0,0.027,0.004,0.054,0.004,0.082c0.001,0.196,0.016,0.391,0.029,0.587
	c0.009,0.139,0.012,0.28,0.027,0.417c0.018,0.169,0.05,0.337,0.077,0.505c0.025,0.159,0.044,0.32,0.077,0.477
	c0.027,0.13,0.067,0.258,0.1,0.387c0.047,0.188,0.09,0.378,0.147,0.562c0.038,0.122,0.09,0.241,0.132,0.36
	c0.065,0.185,0.127,0.372,0.203,0.551c0.079,0.186,0.173,0.366,0.264,0.547c0.054,0.109,0.101,0.221,0.159,0.327
	c0.096,0.176,0.207,0.346,0.314,0.517c0.066,0.106,0.126,0.216,0.195,0.319c0.095,0.139,0.202,0.271,0.304,0.407
	c0.098,0.129,0.19,0.262,0.294,0.386c0.093,0.112,0.197,0.216,0.295,0.325c0.127,0.14,0.252,0.281,0.386,0.414
	c0.02,0.02,0.037,0.042,0.058,0.062c0.092,0.089,0.19,0.164,0.284,0.249c0.13,0.117,0.258,0.234,0.393,0.344
	c0.13,0.105,0.264,0.199,0.396,0.297c0.129,0.095,0.256,0.19,0.389,0.278c0.145,0.096,0.294,0.181,0.443,0.269
	c0.131,0.077,0.26,0.156,0.394,0.227c0.153,0.081,0.31,0.152,0.466,0.224c0.139,0.064,0.276,0.131,0.418,0.189
	c0.157,0.064,0.316,0.118,0.475,0.174c0.148,0.052,0.294,0.107,0.445,0.152c0.163,0.049,0.329,0.087,0.494,0.127
	c0.15,0.037,0.298,0.077,0.451,0.108c0.189,0.037,0.379,0.06,0.571,0.088c0.132,0.018,0.261,0.042,0.394,0.055
	c0.327,0.032,0.655,0.049,0.984,0.049l0,0l0,0h98.787l0,0l0,0c0.328,0,0.656-0.018,0.983-0.049c0.135-0.013,0.265-0.038,0.397-0.056
	c0.189-0.026,0.378-0.049,0.567-0.087c0.154-0.03,0.303-0.071,0.455-0.109c0.164-0.04,0.328-0.077,0.491-0.126
	c0.151-0.045,0.298-0.101,0.447-0.153c0.159-0.055,0.318-0.11,0.474-0.173c0.141-0.058,0.278-0.124,0.416-0.188
	c0.157-0.072,0.315-0.144,0.469-0.225c0.133-0.07,0.261-0.148,0.389-0.224c0.15-0.089,0.301-0.175,0.448-0.272
	c0.131-0.087,0.256-0.181,0.382-0.273c0.136-0.099,0.272-0.195,0.404-0.302c0.134-0.109,0.261-0.225,0.389-0.341
	c0.095-0.085,0.194-0.162,0.286-0.251c0.021-0.02,0.038-0.042,0.058-0.062c0.135-0.132,0.26-0.274,0.386-0.414
	c0.099-0.109,0.202-0.213,0.295-0.325c0.104-0.125,0.196-0.258,0.294-0.386c0.102-0.135,0.209-0.268,0.304-0.407
	c0.069-0.103,0.13-0.213,0.195-0.319c0.107-0.171,0.218-0.341,0.314-0.517c0.057-0.107,0.105-0.218,0.158-0.327
	c0.091-0.182,0.185-0.362,0.264-0.547c0.076-0.179,0.137-0.366,0.203-0.551c0.043-0.121,0.094-0.238,0.132-0.36
	c0.057-0.184,0.1-0.374,0.147-0.562c0.032-0.129,0.072-0.257,0.1-0.387c0.033-0.157,0.051-0.318,0.077-0.477
	c0.027-0.168,0.058-0.336,0.076-0.505c0.015-0.137,0.018-0.278,0.027-0.417c0.013-0.195,0.028-0.39,0.03-0.587
	c0-0.027,0.004-0.054,0.004-0.082V463.39c28.127-4.752,49.625-29.271,49.625-58.728c0-29.454-21.497-53.967-49.625-58.718V249.55
	c0-0.026,0.001-0.051,0.001-0.077c0-0.026-0.001-0.051-0.001-0.077v-70.266h16.847v15.427c0,15.171,12.343,27.514,27.514,27.514
	c15.166,0,27.503-12.343,27.503-27.514v-50.982c0-7.363-2.867-14.276-8.048-19.442c-5.188-5.205-12.097-8.072-19.456-8.072
	c-15.171,0-27.514,12.343-27.514,27.514v15.427h-16.847v-58.687v-62.58c0-5.558-4.506-10.063-10.063-10.063
	c-5.557,0-10.063,4.505-10.063,10.063v52.517h-88.723c-0.114,0-0.223,0.013-0.336,0.017c-0.193,0.006-0.386,0.012-0.58,0.029
	c-0.155,0.014-0.306,0.037-0.459,0.058c-0.172,0.023-0.344,0.046-0.514,0.078c-0.161,0.03-0.318,0.069-0.475,0.108
	c-0.161,0.038-0.321,0.076-0.481,0.124c-0.156,0.046-0.309,0.1-0.462,0.153c-0.157,0.054-0.314,0.109-0.469,0.172
	c-0.147,0.059-0.289,0.126-0.433,0.192c-0.155,0.071-0.31,0.143-0.463,0.222c-0.138,0.072-0.272,0.152-0.407,0.231
	c-0.148,0.087-0.296,0.173-0.441,0.268c-0.137,0.091-0.268,0.188-0.401,0.285c-0.132,0.097-0.265,0.19-0.393,0.294
	c-0.143,0.115-0.278,0.239-0.414,0.361c-0.09,0.081-0.184,0.153-0.272,0.237c-0.021,0.02-0.037,0.042-0.058,0.062
	c-0.135,0.132-0.259,0.274-0.386,0.414c-0.099,0.109-0.202,0.213-0.295,0.325c-0.104,0.125-0.196,0.258-0.294,0.386
	c-0.102,0.135-0.209,0.268-0.304,0.407c-0.069,0.103-0.13,0.213-0.195,0.319c-0.107,0.171-0.218,0.341-0.314,0.517
	c-0.057,0.107-0.105,0.218-0.159,0.327c-0.091,0.182-0.185,0.362-0.264,0.547c-0.076,0.179-0.137,0.366-0.203,0.551
	c-0.043,0.121-0.094,0.239-0.132,0.36c-0.057,0.184-0.1,0.374-0.147,0.562c-0.032,0.129-0.072,0.257-0.1,0.387
	c-0.033,0.157-0.051,0.318-0.077,0.477c-0.027,0.168-0.058,0.336-0.077,0.505c-0.015,0.137-0.018,0.278-0.027,0.417
	c-0.013,0.195-0.028,0.39-0.029,0.587c0,0.027-0.004,0.054-0.004,0.082v40.767H210.005z M173.209,465.764
	c0,4.073-3.309,7.387-7.377,7.387c-1.969,0-3.816-0.765-5.224-2.177c-1.388-1.384-2.153-3.233-2.153-5.21v-50.982
	c0-4.073,3.309-7.387,7.377-7.387c4.068,0,7.377,3.313,7.377,7.387V465.764z M373.28,136.186c1.969,0,3.816,0.765,5.222,2.176
	c1.39,1.385,2.155,3.235,2.155,5.211v50.982c0,4.073-3.309,7.387-7.376,7.387c-4.073,0-7.387-3.313-7.387-7.387v-25.432
	c0-0.02,0.003-0.038,0.003-0.058c0-0.02-0.003-0.038-0.003-0.058v-25.432C365.894,139.499,369.208,136.186,373.28,136.186z
	 M286.845,354.537l-3.223-3.332l25.172-24.855v19.631C300.825,347.359,293.399,350.321,286.845,354.537z M271.979,368.118
	c-7.871,10.098-12.576,22.777-12.576,36.541c0,10.683,2.841,20.711,7.785,29.39l-32.959-34.072l35.071-34.63L271.979,368.118z
	 M131.345,249.469c0-48.923,39.801-88.725,88.724-88.725s88.724,39.801,88.724,88.725c0,13.92-3.226,27.1-8.964,38.836
	c-14.429,29.51-44.76,49.885-79.765,49.885c-23.695,0-45.251-9.338-61.181-24.527C141.927,297.494,131.345,274.693,131.345,249.469z
	 M252.897,353.257l-22.765,22.478V357.85C237.99,357.126,245.609,355.567,252.897,353.257z M230.132,424.691l25.329,26.184
	l-25.329,26.183V424.691z M269.462,465.35l25.657,26.523h-51.315L269.462,465.35z M287.912,455.475
	c6.288,3.858,13.345,6.569,20.88,7.873v13.712L287.912,455.475z M308.792,177.56l-25.329-26.184l25.329-26.183V177.56z
	 M269.462,136.901l-25.657-26.523h51.315L269.462,136.901z M248.775,144.464c-6.024-1.648-12.253-2.792-18.643-3.38v-15.891
	L248.775,144.464z M358.417,404.659c0,21.752-17.697,39.449-39.449,39.449c-21.746,0-39.439-17.697-39.439-39.449
	c0-21.746,17.693-39.439,39.439-39.439C340.72,365.22,358.417,382.912,358.417,404.659z"/>
<path d="M319.04,415.5c12.951,0,12.972-20.127,0-20.127C306.09,395.374,306.068,415.5,319.04,415.5z"/>
<path d="M318.857,20.127c12.951,0,12.972-20.127,0-20.127C305.906,0,305.884,20.127,318.857,20.127z"/>
<g>
</g>
<g>
</g>
<g>
</g>
<g>
</g>
<g>
</g>
<g>
</g>
<g>
</g>
<g>
</g>
<g>
</g>
<g>
</g>
<g>
</g>
<g>
</g>
<g>
</g>
<g>
</g>
<g>
</g>
</svg>
