<?xml version="1.0" encoding="iso-8859-1"?>
<!-- Generator: Adobe Illustrator 19.0.0, SVG Export Plug-In . SVG Version: 6.00 Build 0)  -->
<svg version="1.1" id="Capa_1" xmlns="http://www.w3.org/2000/svg" xmlns:xlink="http://www.w3.org/1999/xlink" x="0px" y="0px"
	 viewBox="0 0 480 480" style="enable-background:new 0 0 480 480;" xml:space="preserve">
<g>
	<g>
		<path d="M440,272h-4.32c7.632-8.504,12.32-19.696,12.32-32c0-23.736-17.336-43.448-40-47.28V94.864c13.768-3.576,24-16,24-30.864
			c0-17.648-14.352-32-32-32c-14.872,0-27.288,10.24-30.864,24h-60.192l-13.792-27.576c-1.52-3.056-4.776-4.792-8.216-4.352
			c-3.392,0.456-6.112,3.008-6.784,6.36l-15.44,77.2L247.888,6.68c-0.624-3.76-3.824-6.56-7.64-6.68c-0.08,0-0.168,0-0.248,0
			c-3.72,0-6.952,2.56-7.8,6.2l-19,82.32l-14.048-28.104C197.8,57.712,195.032,56,192,56h-81.136C107.288,42.24,94.872,32,80,32
			c-17.648,0-32,14.352-32,32c0,14.864,10.232,27.288,24,30.864v97.856c-22.664,3.832-40,23.544-40,47.28
			c0,12.304,4.688,23.496,12.32,32H40c-22.056,0-40,17.944-40,40v56c0,4.416,3.576,8,8,8h24v96c0,4.416,3.576,8,8,8h40h40
			c4.424,0,8-3.584,8-8v-96h24c4.424,0,8-3.584,8-8v-56c0-22.056-17.944-40-40-40h-4.32c7.632-8.504,12.32-19.696,12.32-32
			c0-23.736-17.336-43.448-40-47.28V94.864C99.192,91.952,107.952,83.192,110.864,72h76.192l21.792,43.576
			c1.504,3.016,4.672,4.728,8.104,4.368c3.352-0.4,6.096-2.856,6.848-6.144l14.936-64.736l17.376,104.248
			c0.632,3.808,3.896,6.624,7.76,6.68c0.048,0,0.096,0,0.136,0c3.808,0,7.096-2.688,7.84-6.432l19.432-97.136l5.568,11.144
			C298.2,70.288,300.968,72,304,72h65.136c2.912,11.192,11.672,19.952,22.864,22.864v97.856c-22.664,3.824-40,23.536-40,47.28
			c0,12.304,4.688,23.496,12.32,32H360c-22.056,0-40,17.944-40,40v56c0,4.416,3.576,8,8,8h24v96c0,4.416,3.576,8,8,8h40h40
			c4.424,0,8-3.584,8-8v-96h24c4.424,0,8-3.584,8-8v-56C480,289.944,462.056,272,440,272z M120,288c13.232,0,24,10.768,24,24v48h-16
			v-48h-16v152H88v-88H72v88H48V312H32v48H16v-48c0-13.232,10.768-24,24-24H120z M112,240c0,17.648-14.352,32-32,32
			s-32-14.352-32-32s14.352-32,32-32S112,222.352,112,240z M80,80c-8.824,0-16-7.176-16-16s7.176-16,16-16s16,7.176,16,16
			S88.824,80,80,80z M384,64c0-8.824,7.176-16,16-16c8.824,0,16,7.176,16,16s-7.176,16-16,16C391.176,80,384,72.824,384,64z
			 M400,208c17.648,0,32,14.352,32,32s-14.352,32-32,32s-32-14.352-32-32S382.352,208,400,208z M464,360h-16v-48h-16v152h-24v-88
			h-16v88h-24V312h-16v48h-16v-48c0-13.232,10.768-24,24-24h80c13.232,0,24,10.768,24,24V360z"/>
	</g>
</g>
<g>
</g>
<g>
</g>
<g>
</g>
<g>
</g>
<g>
</g>
<g>
</g>
<g>
</g>
<g>
</g>
<g>
</g>
<g>
</g>
<g>
</g>
<g>
</g>
<g>
</g>
<g>
</g>
<g>
</g>
</svg>
