<?xml version="1.0" encoding="iso-8859-1"?>
<!-- Generator: Adobe Illustrator 19.0.0, SVG Export Plug-In . SVG Version: 6.00 Build 0)  -->
<svg version="1.1" id="Capa_1" xmlns="http://www.w3.org/2000/svg" xmlns:xlink="http://www.w3.org/1999/xlink" x="0px" y="0px"
	 viewBox="0 0 472 472" style="enable-background:new 0 0 472 472;" xml:space="preserve">
<g>
	<rect x="68" y="80" style="fill:#2D2E46;" width="16" height="128"/>
	<rect x="388" y="80" style="fill:#2D2E46;" width="16" height="128"/>
</g>
<g>
	<circle style="fill:#FCBA5B;" cx="76" cy="240" r="40"/>
	<path style="fill:#FCBA5B;" d="M116,280H76H36c-17.672,0-32,14.328-32,32v56h32v104h40h40V368h32v-56
		C148,294.328,133.672,280,116,280z"/>
</g>
<g>
	<circle style="fill:#6ACCEF;" cx="396" cy="240" r="40"/>
	<path style="fill:#6ACCEF;" d="M436,280h-40h-40c-17.672,0-32,14.328-32,32v56h32v104h40h40V368h32v-56
		C468,294.328,453.672,280,436,280z"/>
</g>
<path style="fill:#2D2E46;" d="M260,160c-0.04,0-0.088,0-0.136,0c-3.856-0.064-7.128-2.872-7.76-6.68L234.736,49.064L219.8,113.8
	c-0.76,3.288-3.504,5.744-6.848,6.144c-3.432,0.36-6.592-1.352-8.104-4.368L183.056,72H92V56h96c3.032,0,5.8,1.712,7.16,4.424
	l14.048,28.104l19-82.328C229.048,2.56,232.28,0,236,0c0.08,0,0.168,0,0.248,0c3.816,0.12,7.016,2.912,7.64,6.68l16.832,100.944
	l15.44-77.2c0.672-3.352,3.392-5.904,6.784-6.36c3.448-0.44,6.696,1.296,8.216,4.352L304.944,56H380v16h-80
	c-3.032,0-5.8-1.712-7.16-4.424l-5.568-11.144l-19.432,97.136C267.096,157.312,263.808,160,260,160z"/>
<g>
	<circle style="fill:#E05346;" cx="76" cy="64" r="24"/>
	<circle style="fill:#E05346;" cx="396" cy="64" r="24"/>
</g>
<g>
</g>
<g>
</g>
<g>
</g>
<g>
</g>
<g>
</g>
<g>
</g>
<g>
</g>
<g>
</g>
<g>
</g>
<g>
</g>
<g>
</g>
<g>
</g>
<g>
</g>
<g>
</g>
<g>
</g>
</svg>
