<?xml version="1.0" encoding="iso-8859-1"?>
<!-- Generator: Adobe Illustrator 19.0.0, SVG Export Plug-In . SVG Version: 6.00 Build 0)  -->
<svg version="1.1" id="Capa_1" xmlns="http://www.w3.org/2000/svg" xmlns:xlink="http://www.w3.org/1999/xlink" x="0px" y="0px"
	 viewBox="0 0 512 512" style="enable-background:new 0 0 512 512;" xml:space="preserve">
<polygon style="fill:#434343;" points="271,67.5 246,67.5 256,0 271,0 "/>
<rect x="241" style="fill:#636363;" width="15" height="67.5"/>
<polygon style="fill:#C0C0C0;" points="331,52.5 256,52.5 226,142.5 331,142.5 "/>
<rect x="181" y="52.5" style="fill:#D2D2D2;" width="75" height="90"/>
<polygon style="fill:#C0C0C0;" points="323.5,292.5 226,292.5 256,512 323.5,512 "/>
<rect x="188.5" y="292.5" style="fill:#D2D2D2;" width="67.5" height="219.5"/>
<path style="fill:#A1A1A1;" d="M428.5,112.5H256l-30,105l30,105h97.5c41.355,0,75-33.645,75-75l-30-30l30-30V112.5z"/>
<path style="fill:#C0C0C0;" d="M83.5,112.5v75l30,30l-30,30c0,41.355,33.645,75,75,75H256v-210H83.5z"/>
<g>
	<rect x="83.5" y="187.5" style="fill:#B2F5FF;" width="95" height="60"/>
	<rect x="208.5" y="187.5" style="fill:#B2F5FF;" width="47.5" height="60"/>
</g>
<g>
	<rect x="333.5" y="187.5" style="fill:#65EAFF;" width="95" height="60"/>
	<rect x="256" y="187.5" style="fill:#65EAFF;" width="47.5" height="60"/>
</g>
<g>
</g>
<g>
</g>
<g>
</g>
<g>
</g>
<g>
</g>
<g>
</g>
<g>
</g>
<g>
</g>
<g>
</g>
<g>
</g>
<g>
</g>
<g>
</g>
<g>
</g>
<g>
</g>
<g>
</g>
</svg>
