<?xml version="1.0" encoding="iso-8859-1"?>
<!-- Generator: Adobe Illustrator 19.0.0, SVG Export Plug-In . SVG Version: 6.00 Build 0)  -->
<svg version="1.1" id="Capa_1" xmlns="http://www.w3.org/2000/svg" xmlns:xlink="http://www.w3.org/1999/xlink" x="0px" y="0px"
	 viewBox="0 0 512 512" style="enable-background:new 0 0 512 512;" xml:space="preserve">
<g>
	<g>
		<path d="M437,53.5H75c-41.355,0-75,33.645-75,75v255c0,41.355,33.645,75,75,75h362c41.355,0,75-33.645,75-75v-255
			C512,87.145,478.355,53.5,437,53.5z M482,383.5c0,24.813-20.187,45-45,45H75c-24.813,0-45-20.187-45-45v-255
			c0-24.813,20.187-45,45-45h362c24.813,0,45,20.187,45,45V383.5z"/>
	</g>
</g>
<g>
	<g>
		<path d="M60,113.5v285h392v-285H60z M150.5,368.5H90v-45h60.5V368.5z M241,368.5h-60.5v-45H241V368.5z M422,368.5H271v-45h151
			V368.5z M422,293.5H90v-150h332V293.5z"/>
	</g>
</g>
<g>
</g>
<g>
</g>
<g>
</g>
<g>
</g>
<g>
</g>
<g>
</g>
<g>
</g>
<g>
</g>
<g>
</g>
<g>
</g>
<g>
</g>
<g>
</g>
<g>
</g>
<g>
</g>
<g>
</g>
</svg>
