<?xml version="1.0" encoding="iso-8859-1"?>
<!-- Generator: Adobe Illustrator 19.0.0, SVG Export Plug-In . SVG Version: 6.00 Build 0)  -->
<svg version="1.1" id="Capa_1" xmlns="http://www.w3.org/2000/svg" xmlns:xlink="http://www.w3.org/1999/xlink" x="0px" y="0px"
	 viewBox="0 0 512 512" style="enable-background:new 0 0 512 512;" xml:space="preserve">
<path d="M437,53.5H256L196,256l60,202.5h181c41.355,0,75-33.645,75-75v-255C512,87.145,478.355,53.5,437,53.5z"/>
<path style="fill:#242424;" d="M75,53.5c-41.355,0-75,33.645-75,75v255c0,41.355,33.645,75,75,75h181v-405H75z"/>
<polygon style="fill:#A1A1A1;" points="226,293.5 256,398.5 452,398.5 452,323.5 "/>
<polygon style="fill:#C0C0C0;" points="128,293.5 158,398.5 256,398.5 256,293.5 "/>
<polygon style="fill:#D2D2D2;" points="60,323.5 60,398.5 158,398.5 158,293.5 "/>
<polygon style="fill:#828282;" points="452,323.5 452,113.5 256,113.5 216,211 256,323.5 "/>
<rect x="60" y="113.5" style="fill:#A1A1A1;" width="196" height="210"/>
<polygon style="fill:#FBF24A;" points="422,293.5 422,143.5 256,143.5 222.122,213.143 256,293.5 "/>
<rect x="90" y="143.5" style="fill:#FDF9A5;" width="166" height="150"/>
<g>
</g>
<g>
</g>
<g>
</g>
<g>
</g>
<g>
</g>
<g>
</g>
<g>
</g>
<g>
</g>
<g>
</g>
<g>
</g>
<g>
</g>
<g>
</g>
<g>
</g>
<g>
</g>
<g>
</g>
</svg>
