<?xml version="1.0" encoding="iso-8859-1"?>
<!-- Generator: Adobe Illustrator 19.0.0, SVG Export Plug-In . SVG Version: 6.00 Build 0)  -->
<svg version="1.1" id="Capa_1" xmlns="http://www.w3.org/2000/svg" xmlns:xlink="http://www.w3.org/1999/xlink" x="0px" y="0px"
	 viewBox="0 0 480 480" style="enable-background:new 0 0 480 480;" xml:space="preserve">
<g>
	<g>
		<g>
			<path d="M461.597,331.464L334.949,203.888l14.056-69.232c3.627,1.416,7.483,2.156,11.376,2.184h0.096
				c17.884,0.211,32.553-14.115,32.765-31.999c0.212-17.884-14.115-32.553-31.999-32.765c-17.884-0.211-32.553,14.115-32.765,31.999
				c-0.045,3.827,0.588,7.631,1.871,11.237l-74.4,9.08L134.589,2.4c-1.489-1.519-3.521-2.383-5.648-2.4
				c-2.1,0.011-4.111,0.847-5.6,2.328l-22.688,22.56c-3.123,3.124-3.123,8.188,0,11.312l12.208,12.384
				c-47.296,86.969-31.934,194.667,37.792,264.944c0.64,0.612,1.382,1.107,2.192,1.464c-0.504,2.707-0.767,5.454-0.784,8.208V416
				h-96c-22.08,0.026-39.974,17.92-40,40v16c0,4.418,3.582,8,8,8h368c4.418,0,8-3.582,8-8v-16c-0.026-22.08-17.92-39.974-40-40h-96
				v-41.128c15.039,3.154,30.362,4.762,45.728,4.8c36.872-0.04,73.157-9.232,105.6-26.752l12.272,12.344
				c1.489,1.519,3.521,2.383,5.648,2.4c2.1-0.011,4.111-0.847,5.6-2.328l22.688-22.56
				C464.72,339.652,464.72,334.588,461.597,331.464z M349.197,93.496c6.265-6.232,16.396-6.204,22.627,0.061
				c6.232,6.265,6.204,16.396-0.061,22.627c-2.999,2.983-7.057,4.657-11.287,4.656h-0.048c-8.836-0.046-15.963-7.246-15.917-16.083
				c0.022-4.23,1.718-8.278,4.717-11.261H349.197z M330.365,146.064l-8.976,44.184l-17.632-17.736L330.365,146.064z
				 M321.277,132.536l-28.8,28.632l-22.28-22.4L321.277,132.536z M360.061,432c13.255,0,24,10.745,24,24v8h-352v-8
				c0-13.255,10.745-24,24-24H360.061z M248.061,400v16h-80v-16H248.061z M168.061,384v-60.8c0-19.408,17.944-35.2,40-35.2
				c22.056,0,40,15.792,40,35.2V384H168.061z M264.061,358.56V323.2c0-28.232-25.12-51.2-56-51.2
				c-19.966-0.306-38.636,9.857-49.216,26.792c-60.866-64.107-74.572-159.678-34.179-238.307l279.027,280.627
				C360.607,363.03,311.216,369.201,264.061,358.56z M433.397,348.304l-11.272-11.336L128.861,41.936l-11.32-11.344l11.32-11.28
				l119.024,119.696c0.056,0,0.088,0.104,0.144,0.144l196.72,197.872L433.397,348.304z"/>
			<path d="M208.133,304h-0.072c-13.255-0.02-24.016,10.709-24.036,23.964S194.734,351.98,207.989,352h0.072
				c13.255,0.02,24.016-10.709,24.036-23.964C232.117,314.781,221.388,304.02,208.133,304z M213.733,333.672
				c-1.506,1.498-3.547,2.336-5.672,2.328c-4.418-0.023-7.981-3.623-7.958-8.041c0.011-2.115,0.859-4.139,2.358-5.631
				c1.489-1.481,3.5-2.317,5.6-2.328c4.418,0.023,7.981,3.623,7.958,8.041c-0.011,2.115-0.859,4.139-2.358,5.631H213.733z"/>
		</g>
	</g>
</g>
<g>
</g>
<g>
</g>
<g>
</g>
<g>
</g>
<g>
</g>
<g>
</g>
<g>
</g>
<g>
</g>
<g>
</g>
<g>
</g>
<g>
</g>
<g>
</g>
<g>
</g>
<g>
</g>
<g>
</g>
</svg>
