<?xml version="1.0" encoding="iso-8859-1"?>
<!-- Generator: Adobe Illustrator 19.0.0, SVG Export Plug-In . SVG Version: 6.00 Build 0)  -->
<svg version="1.1" id="Capa_1" xmlns="http://www.w3.org/2000/svg" xmlns:xlink="http://www.w3.org/1999/xlink" x="0px" y="0px"
	 viewBox="0 0 448 448" style="enable-background:new 0 0 448 448;" xml:space="preserve">
<g>
	<g>
		<g>
			<path d="M224,32C117.961,32,32,117.961,32,224s85.961,192,192,192s192-85.961,192-192C415.877,118.013,329.987,32.123,224,32z
				 M94.061,342.741C64.414,310.304,47.983,267.944,48,224c0.001-97.202,78.8-175.999,176.002-175.998
				c23.482,0,46.727,4.7,68.366,13.822l-13.792,28.96c-73.511-30.185-157.574,4.937-187.759,78.448
				c-5.326,12.972-8.728,26.652-10.097,40.608c-7.82,3.941-10.966,13.475-7.025,21.295c1.529,3.034,3.991,5.496,7.025,7.025
				c7.759,79.079,78.155,136.894,157.234,129.135c30.46-2.989,59.173-15.613,81.966-36.039l22.656,22.656
				C270.866,419.453,159.602,414.451,94.061,342.741z M328,160c2.112-0.029,4.211-0.341,6.24-0.928
				C345.867,178.734,352,201.158,352,224c-0.04,5.389-0.417,10.77-1.128,16.112c-13.164,0.546-23.393,11.66-22.847,24.824
				c0.297,7.151,3.788,13.79,9.511,18.088c-4.801,9.219-10.711,17.816-17.6,25.6l-22.72-22.72
				c14.267-16.814,22.275-38.048,22.664-60.096c9.875-8.669,10.852-23.702,2.183-33.576c-2.741-3.122-6.252-5.472-10.183-6.816
				c-8.147-18.608-21.994-34.147-39.544-44.376l13.752-28.864c7.131,3.972,13.866,8.617,20.112,13.872
				c-1.446,3.119-2.197,6.514-2.2,9.952C304,149.255,314.745,160,328,160z M320,136c0-4.418,3.582-8,8-8s8,3.582,8,8s-3.582,8-8,8
				S320,140.418,320,136z M360,264c0,4.418-3.582,8-8,8s-8-3.582-8-8s3.582-8,8-8S360,259.582,360,264z M101.478,215.35
				c-1.225-1.895-2.839-3.509-4.734-4.734c7.404-70.304,70.398-121.294,140.702-113.89c11.754,1.238,23.281,4.098,34.25,8.498
				l-13.784,28.96c-49.513-18.776-104.871,6.141-123.647,55.653c-11.434,30.15-6.946,64.029,11.943,90.163
				c-1.435,2.423-2.197,5.184-2.208,8c0,8.837,7.163,16,16,16c2.816-0.011,5.577-0.773,8-2.208
				c35.661,25.88,84.4,23.999,117.96-4.552l22.704,22.704c-52.946,46.775-133.786,41.773-180.561-11.173
				c-17.627-19.953-28.59-44.908-31.359-71.387C104.136,232.607,106.255,222.742,101.478,215.35z M282.06,217.698
				c3.786,8.544,12.195,14.106,21.54,14.246c-1.563,15.646-7.72,30.479-17.696,42.632l-22.824-22.808
				c15.358-21.472,10.402-51.329-11.07-66.687c-0.155-0.111-0.31-0.22-0.466-0.329l13.84-29.056
				c12.168,7.371,22.138,17.868,28.872,30.4C282.162,191.455,276.701,205.603,282.06,217.698z M296,208c0-4.418,3.582-8,8-8
				s8,3.582,8,8s-3.582,8-8,8S296,212.418,296,208z M240.152,251.464c-4.876,2.941-10.458,4.508-16.152,4.536
				c-17.673,0.088-32.071-14.168-32.158-31.841c-0.088-17.673,14.168-32.071,31.841-32.158c2.15-0.011,4.296,0.195,6.405,0.615
				l-15.736,33.048L240.152,251.464z M233.648,222.336l10.824-22.728c7.271,6.018,11.495,14.954,11.528,24.392
				c-0.028,5.695-1.595,11.276-4.536,16.152L233.648,222.336z M237.112,177.824c-25.484-7.303-52.063,7.435-59.366,32.919
				c-7.303,25.484,7.435,52.063,32.919,59.366c14.062,4.03,29.195,1.427,41.103-7.069l22.824,22.824
				c-28.449,23.391-69.232,24.205-98.592,1.968c-0.091-8.706-7.126-15.741-15.832-15.832
				c-26.695-35.006-19.958-85.026,15.049-111.721c21.626-16.492,50.169-20.819,75.711-11.479L237.112,177.824z M353.952,342.6h-0.04
				l-22.64-22.6c8.647-9.656,15.945-20.44,21.696-32.056c13.173-0.406,23.523-11.415,23.117-24.588
				c-0.226-7.315-3.796-14.123-9.685-18.468c5.054-32.879-1.648-66.487-18.928-94.912c7.792-10.63,5.491-25.564-5.139-33.355
				c-7.259-5.321-16.893-6.105-24.917-2.029c-7.524-6.448-15.696-12.099-24.384-16.864l13.8-28.984
				c85.712,45.62,118.212,152.085,72.592,237.797C372.482,319.583,363.924,331.698,353.952,342.6z"/>
			<path d="M224,0C100.288,0,0,100.288,0,224s100.288,224,224,224s224-100.288,224-224C447.859,100.347,347.653,0.141,224,0z
				 M224,432c-114.875,0-208-93.125-208-208S109.125,16,224,16s208,93.125,208,208C431.872,338.822,338.822,431.872,224,432z"/>
		</g>
	</g>
</g>
<g>
</g>
<g>
</g>
<g>
</g>
<g>
</g>
<g>
</g>
<g>
</g>
<g>
</g>
<g>
</g>
<g>
</g>
<g>
</g>
<g>
</g>
<g>
</g>
<g>
</g>
<g>
</g>
<g>
</g>
</svg>
