<?xml version="1.0" encoding="iso-8859-1"?>
<!-- Generator: Adobe Illustrator 19.0.0, SVG Export Plug-In . SVG Version: 6.00 Build 0)  -->
<svg version="1.1" id="Capa_1" xmlns="http://www.w3.org/2000/svg" xmlns:xlink="http://www.w3.org/1999/xlink" x="0px" y="0px"
	 viewBox="0 0 480.335 480.335" style="enable-background:new 0 0 480.335 480.335;" xml:space="preserve">
<g>
	<g>
		<g>
			<path d="M475.647,296.263c-9.785-24.19-33.277-40.017-59.371-40c-18.241,0.012-35.604,7.831-47.704,21.48l-40.296-18.6V125.375
				l40.296-18.592c23.514,26.348,63.936,28.646,90.285,5.131c26.348-23.514,28.646-63.936,5.131-90.285
				c-23.514-26.348-63.936-28.646-90.285-5.131c-7.322,6.534-13.041,14.666-16.715,23.765H123.564
				C110.357,7.424,73.029-8.49,40.191,4.718C7.352,17.925-8.562,55.253,4.646,88.091s50.535,48.752,83.373,35.545
				c9.181-3.693,17.382-9.461,23.961-16.853l40.296,18.6v133.768l-40.296,18.592c-23.514-26.348-63.936-28.646-90.285-5.131
				s-28.646,63.936-5.131,90.285c23.514,26.348,63.936,28.646,90.285,5.131c7.322-6.534,13.041-14.666,16.715-23.765h36.712v40
				c0.026,22.08,17.92,39.974,40,40h80c22.08-0.026,39.974-17.92,40-40v-40h36.712c13.255,32.767,50.563,48.584,83.33,35.33
				C473.084,366.337,488.902,329.029,475.647,296.263z M416.276,16.263c26.51-0.062,48.05,21.378,48.112,47.888
				c0.062,26.51-21.378,48.05-47.888,48.112c-12.035,0.028-23.642-4.466-32.52-12.592l39.008-18
				c5.654-2.628,9.276-8.293,9.288-14.528v-2.88c0-13.255-10.745-24-24-24h-33.504C383.335,25.432,399.151,16.286,416.276,16.263z
				 M368.996,56.263h39.28c4.418,0,8,3.582,8,8v2.88l-42.4,19.568c-3.683-6.909-5.607-14.619-5.6-22.448
				C368.292,61.581,368.533,58.905,368.996,56.263z M328.276,56.263h24.552c-0.35,2.653-0.534,5.324-0.552,8
				c0.004,10.144,2.438,20.14,7.096,29.152l-31.096,14.352V56.263z M64.276,368.263c-26.51,0.062-48.05-21.378-48.112-47.888
				c-0.062-26.51,21.378-48.05,47.888-48.112c12.035-0.028,23.642,4.466,32.52,12.592l-39.008,18
				c-5.654,2.628-9.276,8.293-9.288,14.528v2.88c0,13.255,10.745,24,24,24h33.504C97.217,359.094,81.402,368.239,64.276,368.263z
				 M111.556,328.263h-39.28c-4.418,0-8-3.582-8-8v-2.88l42.4-19.568c3.683,6.909,5.607,14.619,5.6,22.448
				C112.26,322.945,112.019,325.621,111.556,328.263z M152.276,328.263h-24.552c0.35-2.653,0.534-5.324,0.552-8
				c-0.004-10.144-2.438-20.14-7.096-29.152l31.096-14.352V328.263z M64.276,112.263c-26.51,0.036-48.029-21.425-48.065-47.935
				s21.425-48.029,47.935-48.065c17.172-0.023,33.048,9.129,41.634,24H72.276c-13.255,0-24,10.745-24,24v2.88
				c0.015,6.239,3.639,11.906,9.296,14.536l39,17.992C87.763,107.764,76.238,112.257,64.276,112.263z M106.676,86.711l-42.4-19.568
				v-2.88c0-4.418,3.582-8,8-8h39.28c0.463,2.642,0.704,5.318,0.72,8C112.283,72.092,110.36,79.802,106.676,86.711z
				 M152.276,107.767L121.18,93.415c4.658-9.012,7.092-19.008,7.096-29.152c-0.018-2.676-0.202-5.347-0.552-8h24.552V107.767z
				 M168.276,56.263h22.608l-22.608,26.4V56.263z M168.276,328.263v-28.104l17.6,28.104H168.276z M192.276,406.791
				c-9.555-3.378-15.958-12.394-16-22.528v-40h16V406.791z M272.276,408.263h-64v-64h64V408.263z M304.276,384.263
				c-0.042,10.134-6.445,19.15-16,22.528v-62.528h16V384.263z M312.276,328.263h-17.6l17.6-28.104V328.263z M312.276,269.967
				l-36.44,58.296h-71.12l-36.44-58.296V132.759v-25.536l43.68-50.96h56.64l43.68,50.96V269.967z M312.276,82.663l-22.608-26.4
				h22.608V82.663z M352.276,320.263c0.018,2.676,0.202,5.347,0.552,8h-24.552v-51.504l31.096,14.352
				C354.714,300.122,352.281,310.118,352.276,320.263z M368.996,328.263c-0.463-2.642-0.704-5.318-0.72-8
				c-0.007-7.829,1.917-15.539,5.6-22.448l42.4,19.568v2.88c0,4.418-3.582,8-8,8H368.996z M448.796,355.671
				c-8.878,8.126-20.484,12.62-32.52,12.592c-17.125-0.023-32.941-9.169-41.504-24h33.504c13.255,0,24-10.745,24-24v-2.88
				c-0.015-6.239-3.639-11.906-9.296-14.536l-39-17.992c19.555-17.898,49.918-16.555,67.816,3
				C469.694,307.41,468.351,337.773,448.796,355.671z"/>
			<circle cx="240.276" cy="376.263" r="16"/>
			<rect x="232.276" y="456.263" width="16" height="24"/>
			
				<rect x="176.278" y="444.949" transform="matrix(-0.7071 -0.7071 0.7071 -0.7071 -8.0427 909.1898)" width="16" height="22.624"/>
			
				<rect x="284.961" y="448.287" transform="matrix(-0.7071 -0.7071 0.7071 -0.7071 183.126 988.4272)" width="22.624" height="16"/>
		</g>
	</g>
</g>
<g>
</g>
<g>
</g>
<g>
</g>
<g>
</g>
<g>
</g>
<g>
</g>
<g>
</g>
<g>
</g>
<g>
</g>
<g>
</g>
<g>
</g>
<g>
</g>
<g>
</g>
<g>
</g>
<g>
</g>
</svg>
