<?xml version="1.0" encoding="iso-8859-1"?>
<!-- Generator: Adobe Illustrator 19.0.0, SVG Export Plug-In . SVG Version: 6.00 Build 0)  -->
<svg version="1.1" id="Capa_1" xmlns="http://www.w3.org/2000/svg" xmlns:xlink="http://www.w3.org/1999/xlink" x="0px" y="0px"
	 viewBox="0 0 463.963 463.963" style="enable-background:new 0 0 463.963 463.963;" xml:space="preserve">
<g>
	<path style="fill:#787D82;" d="M316.574,214.363c-0.537-0.002-1.073-0.056-1.6-0.16c-4.33-0.879-7.127-5.102-6.248-9.432l0,0
		l16.6-81.768l-87.464,10.68c-4.376,0.611-8.418-2.441-9.029-6.817s2.441-8.418,6.817-9.029c0.092-0.013,0.184-0.024,0.276-0.034
		l98.48-12c2.557-0.352,5.122,0.586,6.848,2.504c1.745,1.89,2.474,4.504,1.96,7.024l-18.808,92.632
		C323.646,211.685,320.373,214.359,316.574,214.363L316.574,214.363z"/>
	<path style="fill:#787D82;" d="M318.166,206.531c-0.537-0.003-1.072-0.054-1.6-0.152c-4.33-0.878-7.128-5.101-6.25-9.431
		c0.001-0.003,0.001-0.006,0.002-0.009l15.008-73.92l-79.52,9.696c-4.378,0.596-8.41-2.47-9.006-6.848
		c-0.596-4.378,2.47-8.41,6.848-9.006c0.071-0.01,0.142-0.018,0.214-0.026l90.52-11.04c2.557-0.352,5.122,0.586,6.848,2.504
		c1.745,1.89,2.474,4.504,1.96,7.024l-17.216,84.8C325.219,203.839,321.958,206.515,318.166,206.531L318.166,206.531z"/>
	<path style="fill:#787D82;" d="M279.982,175.963c-4.418,0.004-8.003-3.575-8.007-7.993c-0.002-2.155,0.866-4.22,2.407-5.727
		l55.4-54.232c3.159-3.093,8.227-3.039,11.32,0.12s3.039,8.227-0.12,11.32l0,0l-55.4,54.232
		C284.085,175.146,282.075,175.964,279.982,175.963z"/>
</g>
<path style="fill:#B9B9B9;" d="M408.838,335.035c-84.826,48.548-191.679,34.114-260.584-35.2
	c-68.908-69.318-82.709-176.259-33.656-260.8"/>
<g>
	<path style="fill:#A8A8A8;" d="M98.149,22.561L120.842,0l327.139,329.05l-22.693,22.561L98.149,22.561z"/>
	<path style="fill:#A8A8A8;" d="M247.982,415.963h-96v-100.8c0-23.856,21.488-43.2,48-43.2s48,19.344,48,43.2V415.963z"/>
</g>
<circle style="fill:#C7463B;" cx="352.382" cy="96.843" r="24"/>
<circle style="fill:#B9B9B9;" cx="199.982" cy="319.963" r="16"/>
<path style="fill:#787D82;" d="M151.982,383.963h96v48h-96V383.963z"/>
<path style="fill:#A8A8A8;" d="M47.982,415.963h304c17.673,0,32,14.327,32,32v16l0,0h-368l0,0v-16
	C15.982,430.289,30.309,415.963,47.982,415.963z"/>
<g>
</g>
<g>
</g>
<g>
</g>
<g>
</g>
<g>
</g>
<g>
</g>
<g>
</g>
<g>
</g>
<g>
</g>
<g>
</g>
<g>
</g>
<g>
</g>
<g>
</g>
<g>
</g>
<g>
</g>
</svg>
