<?xml version="1.0" encoding="iso-8859-1"?>
<!-- Generator: Adobe Illustrator 19.0.0, SVG Export Plug-In . SVG Version: 6.00 Build 0)  -->
<svg version="1.1" id="Capa_1" xmlns="http://www.w3.org/2000/svg" xmlns:xlink="http://www.w3.org/1999/xlink" x="0px" y="0px"
	 viewBox="0 0 472.075 472.075" style="enable-background:new 0 0 472.075 472.075;" xml:space="preserve">
<path style="fill:#CDCDCD;" d="M124.038,208.075h224v192h-224V208.075z"/>
<g>
	<path style="fill:#A8A8A8;" d="M148.038,360.075h16v16h-16V360.075z"/>
	<path style="fill:#A8A8A8;" d="M180.038,360.075h16v16h-16V360.075z"/>
</g>
<path style="fill:#6CBAE5;" d="M212.038,360.075h16v16h-16V360.075z"/>
<g>
	<path style="fill:#A8A8A8;" d="M276.038,328.075h16v72h-16V328.075z"/>
	<path style="fill:#A8A8A8;" d="M308.038,328.075h16v72h-16V328.075z"/>
</g>
<path style="fill:#8DC79D;" d="M124.038,272.075h224v64h-224V272.075z"/>
<path style="fill:#6B9777;" d="M148.038,296.075h16v16h-16V296.075z"/>
<path style="fill:#DC4D41;" d="M180.038,296.075h16v16h-16V296.075z"/>
<g>
	<path style="fill:#6B9777;" d="M212.038,296.075h16v16h-16V296.075z"/>
	<path style="fill:#6B9777;" d="M276.038,264.075h16v72h-16V264.075z"/>
	<path style="fill:#6B9777;" d="M308.038,264.075h16v72h-16V264.075z"/>
</g>
<path style="fill:#FBB540;" d="M148.038,232.075h16v16h-16V232.075z"/>
<g>
	<path style="fill:#A8A8A8;" d="M180.038,232.075h16v16h-16V232.075z"/>
	<path style="fill:#A8A8A8;" d="M212.038,232.075h16v16h-16V232.075z"/>
	<path style="fill:#A8A8A8;" d="M276.038,208.075h16v64h-16V208.075z"/>
	<path style="fill:#A8A8A8;" d="M308.038,208.075h16v64h-16V208.075z"/>
</g>
<path style="fill:#69B0BB;" d="M52.038,456.075h368v16h-368V456.075z"/>
<g>
	<path style="fill:#F4CA62;" d="M228.038,104.075h16v16h-16V104.075z"/>
	<path style="fill:#F4CA62;" d="M228.038,136.075h16v16h-16V136.075z"/>
	<path style="fill:#F4CA62;" d="M228.038,168.075h16v16h-16V168.075z"/>
	<path style="fill:#F4CA62;" d="M228.038,424.075h16v16h-16V424.075z"/>
</g>
<path style="fill:#8ACED8;" d="M296.038,24.075h-23.2c-8.8-20-32-29.6-52.8-20.8c-9.6,4-16.8,11.2-20.8,20.8h-23.2
	c-15.2,0-28,12.8-28,28s12.8,28,28,28h120c15.2,0,28-12.8,28-28S311.238,24.075,296.038,24.075z"/>
<g>
</g>
<g>
</g>
<g>
</g>
<g>
</g>
<g>
</g>
<g>
</g>
<g>
</g>
<g>
</g>
<g>
</g>
<g>
</g>
<g>
</g>
<g>
</g>
<g>
</g>
<g>
</g>
<g>
</g>
</svg>
