<?xml version="1.0" encoding="iso-8859-1"?>
<!-- Generator: Adobe Illustrator 19.0.0, SVG Export Plug-In . SVG Version: 6.00 Build 0)  -->
<svg version="1.1" id="Capa_1" xmlns="http://www.w3.org/2000/svg" xmlns:xlink="http://www.w3.org/1999/xlink" x="0px" y="0px"
	 viewBox="0 0 432 432" style="enable-background:new 0 0 432 432;" xml:space="preserve">
<path style="fill:#EBEBEB;" d="M16,16h400c8.837,0,16,7.163,16,16v352c0,17.673-14.327,32-32,32H32c-17.673,0-32-14.327-32-32V32
	C0,23.163,7.163,16,16,16z"/>
<g>
	<circle style="fill:#F7BA61;" cx="216" cy="332" r="52"/>
	<path style="fill:#F7BA61;" d="M16,16h400c8.837,0,16,7.163,16,16v80l0,0H0l0,0V32C0,23.163,7.163,16,16,16z"/>
</g>
<circle style="fill:#EA6B65;" cx="48" cy="64" r="16"/>
<circle style="fill:#6CBAE5;" cx="112" cy="64" r="16"/>
<circle style="fill:#8DC79D;" cx="176" cy="64" r="16"/>
<g>
	<circle style="fill:none;stroke:#000000;stroke-width:2;stroke-miterlimit:10;" cx="216" cy="168" r="24"/>
	<path style="fill:none;stroke:#000000;stroke-width:2;stroke-miterlimit:10;" d="M208,200h16c8.837,0,16,7.163,16,16v32l0,0h-48
		l0,0v-32C192,207.163,199.163,200,208,200z"/>
</g>
<g>
	<path style="fill:#EA6B65;" d="M216,200c-17.673,0-32-14.327-32-32s14.327-32,32-32s32,14.327,32,32S233.673,200,216,200z"/>
	<path style="fill:#EA6B65;" d="M248,256h-64v-40c0-13.255,10.745-24,24-24h16c13.255,0,24,10.745,24,24V256z"/>
</g>
<g>
	<path style="fill:#8DC79D;" d="M96,272c-17.673,0-32-14.327-32-32s14.327-32,32-32s32,14.327,32,32S113.673,272,96,272z"/>
	<path style="fill:#8DC79D;" d="M128,328H64v-40c0-13.255,10.745-24,24-24h16c13.255,0,24,10.745,24,24V328z"/>
</g>
<g>
	<path style="fill:#6CBAE5;" d="M336,272c-17.673,0-32-14.327-32-32s14.327-32,32-32s32,14.327,32,32S353.673,272,336,272z"/>
	<path style="fill:#6CBAE5;" d="M368,328h-64v-40c0-13.255,10.745-24,24-24h16c13.255,0,24,10.745,24,24V328z"/>
</g>
<path style="fill:#DC4D41;" d="M231.736,359.536c-0.272,0-0.56,0-0.8,0l-3.032-0.32c-18.896-1.582-34.821-14.736-39.944-32.992
	l-0.872-2.896c-1.079-3.564,0.443-7.401,3.672-9.256l14.808-8.52l8,13.88l-9.168,5.272c3.651,9.456,11.968,16.324,21.944,18.12
	l3.448-10.008l15.12,5.2l-5.6,16.16C238.187,357.395,235.145,359.546,231.736,359.536z"/>
<g>
	<path style="fill:#BDE1E2;" d="M88,344h16v16H88V344z"/>
	<path style="fill:#BDE1E2;" d="M136,168h16v16h-16V168z"/>
	<path style="fill:#BDE1E2;" d="M280,168h16v16h-16V168z"/>
	<path style="fill:#BDE1E2;" d="M328,344h16v16h-16V344z"/>
</g>
<g>
</g>
<g>
</g>
<g>
</g>
<g>
</g>
<g>
</g>
<g>
</g>
<g>
</g>
<g>
</g>
<g>
</g>
<g>
</g>
<g>
</g>
<g>
</g>
<g>
</g>
<g>
</g>
<g>
</g>
</svg>
